<?xml version="1.0" encoding="UTF-8"?>
<svg xmlns="http://www.w3.org/2000/svg" width="147" height="50" viewBox="0 0 147 50" fill="none">
  <path d="M100.864 22.9681C98.0677 22.9681 97.1595 25.4712 97.1595 28.8314L97.2138 35.2802C97.2138 35.5662 96.9904 35.7969 96.7065 35.7969L94.7221 35.7969C94.4445 35.7969 94.2148 35.5652 94.2148 35.2865L94.2148 20.9128C94.2148 20.6341 94.4455 20.4023 94.7221 20.4023L96.7065 20.4023C96.9841 20.4023 97.2138 20.6341 97.2138 20.9128L97.2138 23.3616C97.9111 21.3147 99.076 20.4023 101.229 20.4023L103.505 20.4023C103.783 20.4023 104.012 20.6341 104.012 20.9128L104.012 22.4566C104.012 22.7353 103.782 22.9671 103.505 22.9671L100.864 22.9671L100.864 22.9681Z" fill="#1A252A"></path>
  <path d="M74.9906 14.25L77.3403 14.25C77.7808 14.25 78.0104 14.774 77.7129 15.107L70.2171 23.3648L78.668 34.9901C78.9123 35.3304 78.668 35.7991 78.2547 35.7991L75.6273 35.7991C75.4645 35.7991 75.309 35.7176 75.214 35.5819L68.0772 25.4869L64.001 29.9149L64.001 35.2823C64.001 35.5611 63.7703 35.7928 63.4927 35.7928L61.5083 35.7928C61.2307 35.7928 61 35.5621 61 35.2823L61 14.7604C61 14.4817 61.2307 14.25 61.5083 14.25L63.4927 14.25C63.7704 14.25 64.001 14.4817 64.001 14.7604L64.001 24.7458C64.001 25.4535 63.785 26.3784 63.5407 27.0861L63.6013 27.0861C63.8455 26.44 64.3058 25.6101 64.7933 25.0245L74.2401 14.583C74.43 14.3721 74.7077 14.25 74.9916 14.25L74.9906 14.25Z" fill="#1A252A"></path>
  <path d="M90.2138 20.4068L92.3328 20.4068C92.6919 20.4068 92.9351 20.7742 92.8067 21.1072L86.1032 37.9767C84.8777 41.3911 82.3652 42.2826 80.6522 42.2826L78.4654 42.2826C78.1877 42.2826 77.957 42.0519 77.957 41.7721L77.957 40.3295C77.957 40.0508 78.1877 39.8191 78.4654 39.8191L79.5217 39.8191C80.2869 39.8191 82.3119 39.4183 82.9549 37.697L83.7545 35.2346L78.1481 21.0989C78.0124 20.7659 78.2629 20.3984 78.622 20.3984L80.742 20.3984C80.9518 20.3984 81.1418 20.5279 81.2159 20.7252L85.0416 30.4934C85.2848 31.2011 85.4414 32.0644 85.4414 32.7721L85.5019 32.7721C85.5019 32.031 85.624 31.2011 85.8672 30.4934L89.7535 20.7189C89.8276 20.5279 90.0176 20.3995 90.2274 20.3995L90.2138 20.4068Z" fill="#1A252A"></path>
  <path d="M105.516 16.3576L105.516 14.7595C105.516 14.4808 105.746 14.249 106.023 14.249L108.102 14.249C108.38 14.249 108.61 14.4808 108.61 14.7595L108.61 16.3576C108.61 16.6363 108.379 16.868 108.102 16.868L106.023 16.868C105.745 16.868 105.516 16.6363 105.516 16.3576ZM108.549 20.915L108.549 35.2814C108.549 35.5601 108.318 35.7918 108.041 35.7918L106.083 35.7918C105.806 35.7918 105.576 35.5611 105.576 35.2814L105.576 20.915C105.576 20.6363 105.807 20.4046 106.083 20.4046L108.041 20.4046C108.318 20.4046 108.549 20.6352 108.549 20.915Z" fill="#1A252A"></path>
  <path d="M120.67 20.2208C125.206 20.2479 127.929 22.7719 127.929 28.0976C127.929 33.4233 125.2 35.9744 120.67 35.9744C118.618 35.9744 116.133 35.083 114.724 33.6686C114.237 33.179 113.898 32.2813 113.681 31.6352L113.62 31.6696C113.837 32.3158 114.02 33.2072 114.02 33.9149L114.02 35.2823C114.02 35.5611 113.789 35.7928 113.511 35.7928L111.527 35.7928C111.249 35.7928 111.02 35.5621 111.02 35.2823L111.02 14.7604C111.02 14.4817 111.25 14.25 111.527 14.25L113.511 14.25C113.789 14.25 114.02 14.4817 114.02 14.7604L114.02 22.4066C114.02 23.1143 113.837 23.9776 113.62 24.6853L113.681 24.6853C113.897 24.0391 114.229 23.1477 114.724 22.6519C116.132 21.1759 118.645 20.2239 120.67 20.2239L120.67 20.2208ZM124.957 28.0976C124.957 24.5266 123.332 22.8053 119.655 22.7103C116.96 22.7103 114.022 24.7437 114.022 28.0976C114.022 31.4515 116.96 33.3627 119.655 33.3627C123.454 33.3627 124.957 31.7302 124.957 28.0976Z" fill="#1A252A"></path>
  <path d="M145.569 33.2989L145.555 33.2989C144.912 33.2989 144.635 33.0818 144.635 32.3125L144.635 26.3396C144.635 21.7885 140.924 20.3125 137.186 20.3125C134.017 20.3125 130.712 21.5025 130.015 24.8365C129.954 25.1288 130.15 25.4211 130.448 25.4555L132.209 25.6935C132.459 25.7279 132.71 25.5776 132.764 25.3334C133.252 23.3135 134.978 22.7415 137.186 22.7415C140.037 22.7415 141.54 23.6058 141.635 25.9722C141.635 27.1758 138.662 27.0536 135.628 27.1152C132.561 27.2039 129.5 28.1288 129.5 31.4211C129.5 33.1758 130.665 34.468 132.256 35.2102C133.819 35.9451 135.194 35.8835 135.567 35.8835C137.835 35.8835 140.835 34.9586 141.634 32.0056L141.634 33.3595C141.634 34.7133 142.643 35.7874 144.207 35.7874L145.568 35.7874C145.845 35.7874 146.075 35.563 146.075 35.277L146.075 33.8073C146.075 33.5286 145.844 33.2968 145.568 33.2968L145.569 33.2989ZM141.635 30.3469C141.635 31.6048 140.619 32.5578 139.271 33.1152C137.924 33.6664 136.82 33.7269 136.238 33.7269C134.985 33.7269 132.561 33.2979 132.561 31.3595C132.561 27.6382 139.089 29.8835 141.635 28.3125L141.635 30.3469Z" fill="#1A252A"></path>
  <path fill-rule="evenodd" clip-rule="evenodd" d="M49.9999 25C49.9999 38.8071 38.8071 50 25 50C11.1929 50 -6.78525e-06 38.8071 -4.37114e-06 25C-1.95703e-06 11.1929 11.1929 1.95702e-06 25 4.37113e-06C38.8071 6.78524e-06 49.9999 11.1929 49.9999 25ZM27.9523 40.8105C28.2015 41.3321 28.7212 41.6369 29.2631 41.6369L29.2636 41.6369C29.4736 41.6369 29.6865 41.591 29.8883 41.4947C30.6117 41.1492 30.918 40.2826 30.5725 39.5592L25.4497 28.8325C24.2835 26.3908 24.2835 23.5901 25.4502 21.1489L30.5725 10.4281C30.918 9.70469 30.6117 8.83806 29.8883 8.49257C29.1654 8.14708 28.2983 8.45337 27.9528 9.17677L22.8304 19.8976C22.0751 21.478 21.6759 23.2388 21.6759 24.9905C21.6759 26.7421 22.0746 28.5034 22.8295 30.0838L27.9523 40.8105ZM20.7794 41.6497C20.1172 41.6495 19.5194 41.1932 19.366 40.5203L16.6897 28.7828C16.124 26.3025 16.1245 23.6803 16.6906 21.2004L19.366 9.48036C19.5446 8.69889 20.3227 8.20969 21.1041 8.38824C21.8856 8.56679 22.3748 9.34487 22.1962 10.1263L19.5209 21.8464C19.051 23.9043 19.051 26.0794 19.5199 28.1373L22.1962 39.8748C22.3743 40.6563 21.8851 41.4349 21.1036 41.6129C20.9952 41.6376 20.8864 41.6497 20.7794 41.6497ZM12.3072 35.6807C11.5054 35.6807 10.8556 35.0308 10.8556 34.2291L10.8556 15.7526C10.8556 14.9508 11.5054 14.3009 12.3072 14.3009C13.109 14.3009 13.7589 14.9508 13.7589 15.7526L13.7589 34.2291C13.7589 35.0308 13.109 35.6807 12.3072 35.6807ZM37.7367 35.6806C37.4391 35.6806 37.1386 35.5891 36.8797 35.3999L29.6825 30.1266C28.0276 28.914 27.0782 27.0424 27.0782 24.9907C27.0782 22.939 28.0276 21.0674 29.6825 19.8548L36.8797 14.5815C37.5262 14.1077 38.4349 14.2476 38.9086 14.8945C39.3823 15.5415 39.2425 16.4497 38.5956 16.9234L31.3983 22.1968C30.4978 22.8563 29.9815 23.8749 29.9815 24.9907C29.9815 26.1065 30.4978 27.1251 31.3983 27.7846L38.5956 33.058C39.2425 33.5317 39.3823 34.4399 38.9086 35.0869C38.6241 35.4749 38.1833 35.6806 37.7367 35.6806Z" fill="#1A252A"></path>
</svg>
