<svg width="192" height="37" viewBox="0 0 192 37" fill="none" xmlns="http://www.w3.org/2000/svg">
<path d="M41.0038 9.20651C40.3863 8.67147 39.6327 8.31466 38.825 8.17484C38.0173 8.03502 37.1864 8.11757 36.4227 8.41352C34.2134 9.24163 32.4996 10.7106 30.8418 12.1327C30.0011 12.8525 29.2076 13.5285 28.3787 14.1049L28.3285 14.1372L28.2872 14.1694L27.9215 14.4181C27.9057 14.4286 27.8889 14.4374 27.8713 14.4445L22.898 17.7685C22.8779 17.7836 22.8561 17.7963 22.833 17.8067C21.7682 18.4768 20.6887 19.1088 19.5707 19.694C17.5711 20.7762 15.4543 21.6303 13.261 22.2398C12.5082 22.4753 11.7335 22.6351 10.9484 22.7168C10.2011 22.8295 9.43839 22.7907 8.70659 22.6026C7.15795 22.1988 6.568 21.3649 6.568 21.3649C5.56508 20.1944 5.07244 18.2485 5.11079 15.5125C5.14913 12.7765 5.40578 9.25626 7.00161 6.44127C7.48243 5.60147 8.18154 4.74407 8.7951 4.74407C8.8343 4.73959 8.87386 4.73959 8.91306 4.74407C9.46172 4.85234 9.70067 5.87361 9.62693 7.77564C9.46756 12.0284 9.03899 16.267 8.34378 20.4666C8.32059 20.6097 8.35178 20.7564 8.43135 20.878C8.51092 20.9996 8.63318 21.0876 8.77443 21.1249L8.91306 21.1629C9.64589 21.351 10.4095 21.3898 11.1579 21.277L11.3349 21.2596C11.4645 21.2469 11.5863 21.1922 11.6812 21.1039C11.7762 21.0155 11.839 20.8983 11.8599 20.7709C12.382 17.5725 12.7685 14.2571 12.9926 10.7545C13.0004 10.6449 13.0391 10.5396 13.1043 10.4509C13.1696 10.3621 13.2587 10.2933 13.3615 10.2524C13.4643 10.2115 13.5766 10.2001 13.6856 10.2195C13.7946 10.239 13.8959 10.2885 13.9779 10.3624C16.4888 12.5946 19.2619 14.5183 22.2372 16.0919C22.3298 16.1383 22.433 16.1599 22.5366 16.1544C22.6401 16.1487 22.7405 16.1161 22.8272 16.0597L25.0277 14.5966C25.1139 14.5393 25.1834 14.4604 25.229 14.3679C25.2746 14.2755 25.2949 14.1727 25.2877 14.07C25.2804 13.9673 25.2462 13.8683 25.1881 13.783C25.1299 13.6977 25.0502 13.6291 24.9569 13.5841C23.3343 12.8028 21.775 11.8979 20.2934 10.8774C19.1671 10.1075 18.0939 9.26383 17.081 8.35208C15.7251 7.12223 14.4612 5.79606 13.2994 4.38416C12.2404 3.11711 11.3408 1.68039 9.59449 1.33216C7.46474 0.910791 5.39695 2.14275 3.92796 4.72365C1.93686 8.2175 1.63007 12.2937 1.56814 15.4539C1.50029 20.1797 2.83357 23.4074 5.53263 25.0489C5.93294 25.2931 6.35689 25.4971 6.79809 25.6576C6.92968 25.7075 7.03887 25.8026 7.10597 25.9255C7.17305 26.0484 7.1936 26.191 7.16386 26.3276C6.6152 28.7271 5.98395 31.1647 4.95743 33.4236C4.90968 33.5324 4.88464 33.6498 4.88387 33.7684C4.8831 33.8871 4.90657 34.0047 4.9529 34.1141C4.99921 34.2234 5.06741 34.3223 5.15335 34.4049C5.2393 34.4874 5.34124 34.5518 5.45298 34.5942L7.08716 35.1999C7.29426 35.277 7.52299 35.2746 7.72828 35.1928C7.93359 35.111 8.10056 34.9559 8.19629 34.758C8.49127 34.1406 8.72725 33.4383 9.15201 32.2853C9.77804 30.4877 10.2836 28.6509 10.6653 26.7871C10.7051 26.6091 10.7997 26.4479 10.9361 26.3258C11.0725 26.2036 11.2438 26.1265 11.4263 26.1052C14.7418 25.763 18.2963 24.2823 21.1813 22.7752C23.5976 21.4678 25.9357 20.0227 28.184 18.4474C28.2968 18.3702 28.4344 18.3368 28.5705 18.3538C32.0246 18.7576 36.2399 19.1761 39.5052 16.8907C40.7578 16.0386 41.6757 14.7838 42.104 13.3383C42.329 12.6165 42.3451 11.8466 42.1506 11.1161C41.9561 10.3856 41.5587 9.72398 41.0038 9.20651ZM38.7324 12.4253C38.5181 13.0909 38.0824 13.6645 37.4964 14.0523C36.8492 14.4891 36.1215 14.7954 35.3549 14.9536C34.7958 15.0885 34.2282 15.1863 33.6559 15.2463C33.4758 15.2463 33.1928 15.3135 33.1131 15.0941C33.0983 15.0335 33.0983 14.9702 33.1131 14.9097C33.1602 14.6346 33.7502 14.2162 33.998 14.0055C34.3755 13.6865 34.8564 13.3617 35.2546 13.0691C35.7995 12.6577 36.381 12.2962 36.9921 11.9893C37.4582 11.7611 38.172 11.3748 38.644 11.8021C38.6852 11.8401 38.8445 11.9835 38.7236 12.4195L38.7324 12.4253Z" fill="#1169F9"/>
<path d="M53.0664 26.9005V4.89062H66.2389L66.0869 8.12073H57.1534V14.3706H65.6463V17.5707H57.1534V26.9005H53.0664Z" fill="#293F7A"/>
<path d="M74.8425 27.1258C73.6979 27.1258 72.7457 26.9956 71.986 26.7352C71.2366 26.4648 70.644 26.039 70.2084 25.4581C69.773 24.8773 69.4691 24.1862 69.2969 23.3848C69.1247 22.5836 69.0386 21.5871 69.0386 20.3951V4.30472L73.0192 4.04932V20.32C73.0192 21.8024 73.1965 22.809 73.5509 23.3397C73.9055 23.8606 74.5943 24.121 75.6174 24.121C76.1237 24.121 76.7669 24.066 77.5469 23.9557L77.6532 26.7653C77.6431 26.7653 77.5165 26.7902 77.2734 26.8404C77.0403 26.8904 76.8124 26.9305 76.5897 26.9606C76.377 27.0005 76.1035 27.0357 75.7693 27.0657C75.435 27.1057 75.126 27.1258 74.8425 27.1258Z" fill="#293F7A"/>
<path d="M83.5678 27.2162C82.0181 27.2162 80.7621 26.7955 79.7997 25.9542C78.8477 25.1028 78.3716 23.8808 78.3716 22.2883C78.3716 20.5756 78.9389 19.3087 80.0734 18.4873C81.2077 17.6561 82.9195 17.1302 85.2086 16.9098C85.5225 16.8697 85.862 16.8298 86.2266 16.7896C86.5912 16.7495 87.0014 16.7096 87.4572 16.6695C87.913 16.6293 88.2726 16.5943 88.5359 16.5643V15.6929C88.5359 14.6913 88.303 13.9652 87.8371 13.5145C87.3711 13.0537 86.6622 12.8234 85.71 12.8234C84.3527 12.8234 82.6764 13.199 80.6811 13.9502C80.6709 13.9201 80.5038 13.4644 80.1797 12.583C79.8555 11.7016 79.6884 11.2509 79.6782 11.2309C81.6433 10.3995 83.7703 9.98389 86.0595 9.98389C88.308 9.98389 89.9439 10.4697 90.9668 11.4412C91.9899 12.4027 92.5014 13.9652 92.5014 16.1286V26.9007H89.5539C89.5437 26.8606 89.4323 26.5251 89.2196 25.8941C89.0069 25.263 88.9006 24.9275 88.9006 24.8874C88.07 25.6887 87.2547 26.2796 86.4545 26.6603C85.6644 27.0308 84.7021 27.2162 83.5678 27.2162ZM84.6465 24.4216C85.5681 24.4216 86.3683 24.2064 87.047 23.7756C87.7357 23.335 88.2271 22.8042 88.5207 22.1831V18.9981C88.4904 18.9981 88.2219 19.0181 87.7155 19.0582C87.2192 19.0983 86.9508 19.1183 86.9103 19.1183C85.2998 19.2585 84.1198 19.559 83.3703 20.0197C82.6206 20.4805 82.246 21.2216 82.246 22.2432C82.246 22.9444 82.4535 23.4852 82.8689 23.8658C83.2841 24.2364 83.8767 24.4216 84.6465 24.4216Z" fill="#293F7A"/>
<path d="M99.388 34.2923L99.1601 31.1073H101.181C103.521 31.1073 105.156 30.7968 106.088 30.1758C107.02 29.5648 107.486 28.4381 107.486 26.7955C107.486 26.1244 107.456 25.3982 107.395 24.617C107.131 24.9775 106.878 25.278 106.635 25.5185C106.402 25.7488 106.104 25.9791 105.739 26.2096C105.384 26.4399 104.954 26.6152 104.447 26.7354C103.951 26.8455 103.384 26.9007 102.746 26.9007C100.538 26.9007 98.7195 26.1144 97.2914 24.5418C95.8734 22.9695 95.1643 20.9413 95.1643 18.4573C95.1643 17.1352 95.3618 15.9333 95.7568 14.8516C96.1519 13.7599 96.6886 12.8634 97.3673 12.1623C98.046 11.4612 98.8259 10.9254 99.7071 10.5548C100.598 10.1742 101.545 9.98389 102.548 9.98389C104.787 9.98389 106.453 10.7902 107.547 12.4027L107.82 10.3895H111.376V25.7288C111.376 26.55 111.335 27.2862 111.254 27.9373C111.173 28.5984 111.031 29.2293 110.829 29.8303C110.626 30.4412 110.358 30.9721 110.023 31.4228C109.699 31.8735 109.289 32.2841 108.793 32.6547C108.296 33.0254 107.709 33.3258 107.03 33.5561C106.362 33.7965 105.582 33.9768 104.691 34.097C103.799 34.2272 102.796 34.2923 101.682 34.2923H99.388ZM103.384 24.1512C106.129 24.1512 107.516 22.3334 107.547 18.6976V18.1267C107.527 16.4941 107.182 15.2321 106.514 14.3408C105.845 13.4494 104.868 12.9986 103.581 12.9886C102.123 12.9886 101.019 13.4844 100.269 14.476C99.5197 15.4575 99.1449 16.7847 99.1449 18.4573C99.1449 20.0699 99.5197 21.422 100.269 22.5136C101.029 23.6054 102.067 24.1512 103.384 24.1512Z" fill="#293F7A"/>
<path d="M114.859 26.9007V10.3896H118.202L118.718 12.9136C119.812 11.1808 121.397 10.3145 123.474 10.3145C123.909 10.3145 124.264 10.3345 124.537 10.3745L124.476 13.6647C124.071 13.6047 123.651 13.5746 123.215 13.5746C121.747 13.5746 120.648 13.9602 119.918 14.7314C119.199 15.5026 118.84 16.5744 118.84 17.9465V26.9007H114.859Z" fill="#293F7A"/>
<path d="M126.593 26.9009V10.3897H130.573V26.9009H126.593ZM126.593 7.98593V4.62061H130.588V7.98593H126.593Z" fill="#293F7A"/>
<path d="M137.612 34.2923L137.384 31.1073H139.405C141.745 31.1073 143.38 30.7968 144.312 30.1758C145.244 29.5648 145.709 28.4381 145.709 26.7955C145.709 26.1244 145.679 25.3982 145.619 24.617C145.355 24.9775 145.102 25.278 144.859 25.5185C144.626 25.7488 144.328 25.9791 143.962 26.2096C143.608 26.4399 143.178 26.6152 142.671 26.7354C142.175 26.8455 141.608 26.9007 140.97 26.9007C138.762 26.9007 136.943 26.1144 135.515 24.5418C134.097 22.9695 133.388 20.9413 133.388 18.4573C133.388 17.1352 133.586 15.9333 133.981 14.8516C134.376 13.7599 134.913 12.8634 135.591 12.1623C136.27 11.4612 137.05 10.9254 137.931 10.5548C138.822 10.1742 139.769 9.98389 140.772 9.98389C143.011 9.98389 144.677 10.7902 145.771 12.4027L146.045 10.3895H149.599V25.7288C149.599 26.55 149.559 27.2862 149.478 27.9373C149.397 28.5984 149.255 29.2293 149.052 29.8303C148.85 30.4412 148.582 30.9721 148.248 31.4228C147.922 31.8735 147.512 32.2841 147.017 32.6547C146.521 33.0254 145.933 33.3258 145.254 33.5561C144.586 33.7965 143.806 33.9768 142.914 34.097C142.023 34.2272 141.02 34.2923 139.906 34.2923H137.612ZM141.608 24.1512C144.352 24.1512 145.741 22.3334 145.771 18.6976V18.1267C145.751 16.4941 145.406 15.2321 144.738 14.3408C144.07 13.4494 143.092 12.9986 141.805 12.9886C140.347 12.9886 139.243 13.4844 138.493 14.476C137.744 15.4575 137.369 16.7847 137.369 18.4573C137.369 20.0699 137.744 21.422 138.493 22.5136C139.253 23.6054 140.291 24.1512 141.608 24.1512Z" fill="#293F7A"/>
<path d="M153.068 26.9005V4.30472L157.048 4.04932V8.81183C157.048 9.04221 157.033 9.68322 157.003 10.7349C156.972 11.7765 156.957 12.3074 156.957 12.3274C158.284 10.7649 160.067 9.98369 162.306 9.98369C164.169 9.98369 165.612 10.5145 166.636 11.5762C167.668 12.6279 168.185 14.2504 168.185 16.4439V26.9005H164.205V16.8796C164.205 15.5275 163.987 14.5359 163.551 13.9049C163.116 13.2739 162.376 12.9584 161.333 12.9584C160.441 12.9584 159.651 13.1837 158.963 13.6345C158.274 14.0752 157.758 14.646 157.412 15.3472C157.17 16.2686 157.048 17.4705 157.048 18.9528V26.9005H153.068Z" fill="#293F7A"/>
<path d="M178.323 27.1261C177.189 27.1261 176.242 26.9958 175.482 26.7355C174.733 26.465 174.145 26.0444 173.719 25.4733C173.294 24.9024 172.99 24.2315 172.808 23.4602C172.636 22.6789 172.55 21.7174 172.55 20.5756V12.7783H169.815L169.967 10.645L172.823 10.3896L174.099 5.91248L176.53 5.89746V10.3896H180.678V12.7783H176.53V20.6507C176.53 21.9028 176.713 22.7942 177.078 23.3249C177.442 23.8559 178.115 24.1212 179.099 24.1212C179.676 24.1212 180.294 24.0712 180.952 23.971L181.058 26.7955C181.038 26.7955 180.912 26.8205 180.678 26.8707C180.456 26.9106 180.238 26.9458 180.024 26.9758C179.822 27.0158 179.559 27.0509 179.235 27.081C178.911 27.111 178.607 27.1261 178.323 27.1261Z" fill="#293F7A"/>
<path d="M189.319 27.2497C188.954 27.2497 188.612 27.182 188.292 27.0466C187.976 26.9112 187.698 26.7231 187.457 26.4824C187.217 26.2416 187.028 25.9633 186.893 25.6473C186.758 25.3276 186.69 24.9853 186.69 24.6204C186.69 24.2593 186.758 23.9208 186.893 23.6048C187.028 23.2889 187.217 23.0105 187.457 22.7698C187.698 22.529 187.976 22.341 188.292 22.2056C188.612 22.0701 188.954 22.0024 189.319 22.0024C189.68 22.0024 190.019 22.0701 190.335 22.2056C190.651 22.341 190.929 22.529 191.17 22.7698C191.411 23.0105 191.599 23.2889 191.734 23.6048C191.869 23.9208 191.937 24.2593 191.937 24.6204C191.937 24.9853 191.869 25.3276 191.734 25.6473C191.599 25.9633 191.411 26.2416 191.17 26.4824C190.929 26.7231 190.651 26.9112 190.335 27.0466C190.019 27.182 189.68 27.2497 189.319 27.2497ZM189.319 26.7757C189.714 26.7757 190.073 26.6798 190.397 26.488C190.724 26.2924 190.984 26.0329 191.175 25.7094C191.367 25.3821 191.463 25.0191 191.463 24.6204C191.463 24.2255 191.367 23.8663 191.175 23.5428C190.984 23.2193 190.724 22.9616 190.397 22.7698C190.073 22.5742 189.714 22.4764 189.319 22.4764C188.92 22.4764 188.558 22.5742 188.23 22.7698C187.907 22.9616 187.647 23.2193 187.452 23.5428C187.26 23.8663 187.164 24.2255 187.164 24.6204C187.164 25.0191 187.26 25.3821 187.452 25.7094C187.647 26.0329 187.907 26.2924 188.23 26.488C188.558 26.6798 188.92 26.7757 189.319 26.7757ZM188.405 25.8956V23.3001H189.556C189.778 23.3001 189.974 23.3829 190.143 23.5484C190.316 23.7139 190.403 23.9095 190.403 24.1352C190.403 24.2819 190.357 24.4286 190.267 24.5753C190.181 24.7182 190.06 24.8235 189.906 24.8913L190.403 25.8956H189.94L189.488 24.9702H188.811V25.8956H188.405ZM188.811 24.5866H189.545C189.658 24.5866 189.759 24.5433 189.85 24.4568C189.94 24.3665 189.985 24.2593 189.985 24.1352C189.985 23.9998 189.936 23.8907 189.838 23.8079C189.74 23.7252 189.643 23.6838 189.545 23.6838H188.811V24.5866Z" fill="#293F7A"/>
</svg>
