<?xml version="1.0" encoding="UTF-8"?> <svg xmlns="http://www.w3.org/2000/svg" xmlns:xlink="http://www.w3.org/1999/xlink" width="290" height="73.222" viewBox="0 0 290 73.222"><defs><clipPath id="clip-path"><rect id="Rectangle_253" data-name="Rectangle 253" width="290" height="73.222" fill="none"></rect></clipPath></defs><g id="Group_776" data-name="Group 776" clip-path="url(#clip-path)"><path id="Path_284" data-name="Path 284" d="M642.435,134.678h-6.283a6.282,6.282,0,0,1,6.283-6.282Z" transform="translate(-451.668 -91.161)" fill="#fff"></path><path id="Path_285" data-name="Path 285" d="M165.155,164.675H129.287a35.868,35.868,0,0,1,35.868-35.868Z" transform="translate(-91.794 -91.453)" fill="#fff"></path><path id="Path_286" data-name="Path 286" d="M35.868,128.807v35.868A35.868,35.868,0,0,1,0,128.807Z" transform="translate(0 -91.453)" fill="#fff"></path><path id="Path_287" data-name="Path 287" d="M35.868,0h0A35.868,35.868,0,0,1,0,35.868,35.868,35.868,0,0,1,35.868,0" fill="#fff"></path><path id="Path_288" data-name="Path 288" d="M129.288,0h0a35.868,35.868,0,0,1,35.868,35.868A35.868,35.868,0,0,1,129.288,0" transform="translate(-91.794)" fill="#fff"></path><path id="Path_289" data-name="Path 289" d="M332.579,167.486c-10.5,0-17.4-7.478-17.4-17.3a17.106,17.106,0,0,1,17.3-17.4c5.849,0,9.443,1.63,12.895,4.554l-3.739,4.458a13.146,13.146,0,0,0-9.4-3.595c-6.183,0-10.881,5.368-10.881,11.888,0,6.951,4.554,12.032,11.409,12.032a13.7,13.7,0,0,0,8.1-2.541V153.3h-8.581v-5.13h14.285v14.093a21.394,21.394,0,0,1-14,5.225" transform="translate(-223.776 -94.275)" fill="#fff"></path><path id="Path_290" data-name="Path 290" d="M458.054,172.783c-.384-3.739-2.589-6.663-6.424-6.663-3.548,0-6.04,2.732-6.567,6.663ZM452.4,183.042a9.193,9.193,0,0,0,6.855-3.02l3.4,3.02a12.8,12.8,0,0,1-10.354,4.745c-7.335,0-12.991-5.321-12.991-13.182,0-7.286,5.13-13.231,12.368-13.231,8.053,0,12.127,6.328,12.127,13.662,0,.528-.048,1.007-.1,1.582h-18.6c.671,4.122,3.547,6.424,7.286,6.424" transform="translate(-311.91 -114.576)" fill="#fff"></path><path id="Path_291" data-name="Path 291" d="M544.8,187.213H539V161.9h5.8v3.931a9.108,9.108,0,0,1,7.91-4.458c5.7,0,9.011,3.835,9.011,9.731v16.107h-5.8V172.832c0-3.931-1.965-6.184-5.417-6.184-3.356,0-5.7,2.349-5.7,6.28Z" transform="translate(-382.69 -114.576)" fill="#fff"></path><rect id="Rectangle_252" data-name="Rectangle 252" width="5.8" height="25.31" transform="translate(184.749 47.327)" fill="#fff"></rect><path id="Path_292" data-name="Path 292" d="M693.361,163.194h5.8V188.5h-5.8v-3.93a9.109,9.109,0,0,1-7.91,4.457c-5.7,0-9.011-3.834-9.011-9.73V163.194h5.8v14.381c0,3.931,1.965,6.183,5.417,6.183,3.356,0,5.7-2.348,5.7-6.279Z" transform="translate(-480.272 -115.868)" fill="#fff"></path><path id="Path_293" data-name="Path 293" d="M778.782,187.928a17.78,17.78,0,0,1-10.738-3.787l2.588-3.931a14.208,14.208,0,0,0,8.293,3.115c2.493,0,3.931-1.054,3.931-2.732v-.1c0-1.965-2.685-2.636-5.656-3.547-3.739-1.054-7.91-2.589-7.91-7.43v-.1c0-4.793,3.979-7.717,9.012-7.717a17.548,17.548,0,0,1,9.3,2.875l-2.3,4.122a14.7,14.7,0,0,0-7.142-2.4c-2.253,0-3.547,1.054-3.547,2.54v.1c0,1.821,2.732,2.588,5.7,3.547,3.691,1.15,7.861,2.829,7.861,7.382v.1c0,5.32-4.122,7.957-9.4,7.957" transform="translate(-545.311 -114.813)" fill="#fff"></path><path id="Path_294" data-name="Path 294" d="M854.511,163.578c0,2.253,1.151,3.164,3.116,3.164a7.794,7.794,0,0,0,3.6-.863v4.746A10.16,10.16,0,0,1,856,171.919c-4.266,0-7.286-1.87-7.286-7.429V151.162H845.5v-4.985h3.212v-6.95h5.8v6.95h6.807v4.985h-6.807Z" transform="translate(-600.305 -98.851)" fill="#fff"></path><path id="Path_295" data-name="Path 295" d="M920.359,166.456c-4.65,0-7.622,3.643-7.622,8.1,0,4.506,3.211,8.2,7.717,8.2,4.7,0,7.67-3.643,7.67-8.1,0-4.506-3.212-8.2-7.766-8.2m0,21.331a13.1,13.1,0,0,1-13.422-13.134,13.5,13.5,0,1,1,13.422,13.134" transform="translate(-643.925 -114.576)" fill="#fff"></path></g></svg> 