<svg width="102" height="20" viewBox="0 0 102 20" fill="none" xmlns="http://www.w3.org/2000/svg">
<path d="M35.2785 20V3.38336H29.362V0H45.2073V3.38336H39.3044V20H35.2785Z" fill="white"/>
<path d="M9.30859 20V0H13.2257L21.3864 13.3561V0H25.1267V20H21.0871L13.0489 6.95771V20H9.30859Z" fill="white"/>
<path d="M0 20V0H4.02592V20H0Z" fill="white"/>
<path d="M49.2116 0H60.5141V3.38336H49.2116V0Z" fill="white"/>
<path d="M49.2116 16.5075H60.5141V19.8909H49.2116V16.5075Z" fill="white"/>
<path d="M49.2116 8.35835H60.5141V11.7417H49.2116V8.35835Z" fill="white"/>
<path d="M92.0712 20V3.38336H86.1547V0H102V3.38336H96.0971V20H92.0712Z" fill="white"/>
<path d="M66.1013 20V0H70.0184L78.1791 13.3561V0H81.9194V20H77.8798L69.8416 6.95771V20H66.1013Z" fill="white"/>
</svg>
