<svg width="225" height="37" viewBox="0 0 225 37" fill="none" xmlns="http://www.w3.org/2000/svg">
<mask id="mask0_1217_7180" style="mask-type:luminance" maskUnits="userSpaceOnUse" x="0" y="17" width="27" height="20">
<path d="M22.7968 17.7744C22.3929 17.7996 22.2716 17.8164 21.92 18.2015C21.3273 18.8519 14.2592 29.5772 13.1789 30.9557C11.7234 32.8131 11.7877 33.4626 9.86066 33.1957C7.37266 32.8509 3.35877 30.0813 3.80916 28.0112C3.91059 27.544 4.89256 25.726 5.73575 24.5333C6.12456 23.9832 6.20913 23.2745 5.95967 22.6486C5.62704 21.8132 4.99114 20.5755 4.74709 20.2888C2.98865 22.8889 1.7048 24.8088 0.69782 26.9755C-0.211144 28.9311 0.848887 31.1337 1.84647 32.2094C2.93878 33.3873 3.45109 34.0333 6.10827 35.3425C9.86905 37.1957 11.8067 36.4504 11.8067 36.4504C13.316 35.9914 14.3964 35.097 15.4732 33.6104C16.4369 32.2803 26.1399 18.0979 26.1399 18.0979C25.7702 17.9053 23.5398 17.7608 22.8924 17.771C22.855 17.7716 22.8229 17.7727 22.7968 17.7744Z" fill="white"/>
</mask>
<g mask="url(#mask0_1217_7180)">
<path d="M15.9706 5.03602L-9.57263 25.5039L10.0858 50.0369L35.629 29.569L15.9706 5.03602Z" fill="white"/>
</g>
<mask id="mask1_1217_7180" style="mask-type:luminance" maskUnits="userSpaceOnUse" x="9" y="10" width="27" height="18">
<path d="M10.853 13.7096C11.1058 14.0254 11.1894 14.1152 11.7064 14.1811C12.1474 14.2372 15.641 14.166 19.2165 14.0936C22.7199 14.0227 26.3021 13.9505 27.1677 13.9953C29.5241 14.1177 30.0185 13.6915 30.9085 15.4213C32.0576 17.6548 32.1008 22.5313 30.1483 23.3537C29.7079 23.5393 27.6559 23.7819 26.1952 23.7782C25.5215 23.7763 24.8932 24.115 24.5247 24.679C24.0327 25.4317 23.3861 26.6639 23.2919 27.0283C26.4302 26.971 28.7392 26.917 31.0908 26.4946C33.2133 26.1132 34.4055 23.9791 34.7114 22.5444C35.0466 20.9732 35.2806 20.1826 34.8231 17.256C34.1758 13.1137 32.4516 11.9573 32.4516 11.9573C31.2081 10.9867 29.8548 10.6174 28.0194 10.5916C26.3773 10.5684 9.1947 10.7888 9.1947 10.7888C9.25286 11.2257 10.5522 13.3343 10.853 13.7096Z" fill="white"/>
</mask>
<g mask="url(#mask1_1217_7180)">
<path d="M32.5285 2.79683L4.3822 12.4365L12.0511 34.8285L40.1974 25.1888L32.5285 2.79683Z" fill="white"/>
</g>
<mask id="mask2_1217_7180" style="mask-type:luminance" maskUnits="userSpaceOnUse" x="2" y="0" width="18" height="29">
<path d="M10.9741 0.375442C9.40479 0.718566 8.58804 0.831944 6.11117 2.45648C2.60534 4.75584 2.26376 6.80352 2.26376 6.80352C1.89292 8.33692 2.11515 9.72182 2.84916 11.4043C3.50588 12.9097 10.799 28.4695 10.799 28.4695C11.1728 28.236 12.5571 26.1821 12.775 25.7533C12.9581 25.3925 13.0053 25.2795 12.852 24.7812C12.5926 23.9403 6.94034 12.4059 6.30117 10.7753C5.43984 8.57843 4.84755 8.30401 6.0558 6.77943C7.61595 4.81081 12.0398 2.75878 13.5947 4.1977C13.9456 4.52218 15.0134 6.29107 15.6129 7.62315C15.8897 8.23747 16.4573 8.66993 17.1232 8.77281C18.0118 8.91038 19.4008 8.99085 19.7717 8.92604C18.4242 6.0912 17.422 4.0104 16.0665 2.04285C15.1173 0.665178 13.4387 0.232904 12.0644 0.254683C11.6673 0.260999 11.2954 0.305187 10.9741 0.375442Z" fill="white"/>
</mask>
<g mask="url(#mask2_1217_7180)">
<path d="M6.4039 -7.55639L-10.3685 21.29L15.4418 36.2971L32.2142 7.45071L6.4039 -7.55639Z" fill="white"/>
</g>
<g clip-path="url(#clip0_1217_7180)">
<path fill-rule="evenodd" clip-rule="evenodd" d="M75.5238 15.3909C75.5238 17.8811 74.6121 19.8932 72.7893 21.4272C71.0995 22.8503 68.9761 23.5618 66.4191 23.5618H56.3808V19.6265H67.0527C68.3646 19.6265 69.4654 19.2374 70.3546 18.4593C71.244 17.681 71.6885 16.6472 71.6885 15.3575C71.6885 14.0682 71.244 13.0453 70.3546 12.2895C69.4654 11.5334 68.3646 11.1554 67.0527 11.1554H54.0463V29.9649H50.0776V7.18701H66.4191C68.9761 7.18701 71.0995 7.9094 72.7893 9.35458C74.6121 10.8664 75.5238 12.8785 75.5238 15.3909Z" fill="white"/>
<path fill-rule="evenodd" clip-rule="evenodd" d="M135.615 22.9282C135.615 25.0849 134.847 26.8191 133.314 28.1308C131.846 29.3535 130.012 29.9649 127.811 29.9649H110.435V25.9962H127.811C128.9 25.9962 129.845 25.7519 130.646 25.2625C131.557 24.6623 132.013 23.8507 132.013 22.8282C132.013 21.8053 131.546 21.0161 130.612 20.4601C129.834 19.9933 128.9 19.7598 127.811 19.7598H117.072C115.093 19.7598 113.437 19.2151 112.103 18.1258C110.68 16.9474 109.968 15.3909 109.968 13.4567C109.968 11.5446 110.68 9.99937 112.103 8.82099C113.437 7.73144 115.093 7.18701 117.072 7.18701H134.247V11.1554H117.072C116.316 11.1554 115.671 11.3666 115.138 11.789C114.604 12.2116 114.337 12.7785 114.337 13.49C114.337 14.2237 114.604 14.7906 115.138 15.1908C115.671 15.5911 116.316 15.7911 117.072 15.7911H127.811C130.012 15.7911 131.846 16.4247 133.314 17.6922C134.847 19.0261 135.615 20.7715 135.615 22.9282Z" fill="white"/>
<path d="M144.015 7.18701H140.046V29.9648H144.015V7.18701Z" fill="white"/>
<path fill-rule="evenodd" clip-rule="evenodd" d="M174.358 18.3258C174.358 21.683 173.28 24.4622 171.123 26.6632C168.967 28.8645 166.221 29.9649 162.886 29.9649H150.261V25.9962H162.886C165.065 25.9962 166.86 25.3181 168.272 23.962C169.684 22.606 170.39 20.8382 170.39 18.6592C170.39 16.4581 169.684 14.6573 168.272 13.2567C166.86 11.856 165.065 11.1554 162.886 11.1554H150.261V7.18701H162.886C166.243 7.18701 168.994 8.20979 171.14 10.2549C173.286 12.3005 174.358 14.9907 174.358 18.3258Z" fill="white"/>
<path d="M188.867 16.4243H177.347V20.393H188.867V16.4243Z" fill="white"/>
<path d="M193.747 25.9961H177.347V29.9648H193.747V25.9961Z" fill="white"/>
<path d="M193.747 7.18701H177.347V11.1554H193.747V7.18701Z" fill="white"/>
<path fill-rule="evenodd" clip-rule="evenodd" d="M223.853 29.9983H218.15L210.112 21.6941L202.108 29.9983H196.406L207.478 18.626L196.406 7.18701H201.908L210.112 15.5911L218.317 7.18701H223.853L212.747 18.626L223.853 29.9983Z" fill="white"/>
<path d="M154.23 7.18701H150.261V30.0305H154.23V7.18701Z" fill="white"/>
<path d="M84.3472 24.0043C82.9287 22.6364 82.2194 20.8632 82.2194 18.6761C82.2194 16.4639 82.9287 14.657 84.3472 13.2467C85.7659 11.8368 87.5728 11.136 89.7598 11.136H96.1602C98.3725 11.136 100.188 11.8368 101.607 13.2467C103.025 14.657 103.734 16.4639 103.734 18.6761C103.734 20.8632 103.025 22.6364 101.607 24.0043C100.188 25.3638 98.3725 26.0477 96.1602 26.0477H89.7598C87.5728 26.0477 85.7659 25.3638 84.3472 24.0043ZM89.7598 7.15039C86.3906 7.15039 83.6212 8.17194 81.4679 10.2323C79.3148 12.2843 78.2339 14.9862 78.2339 18.3385C78.2339 21.7161 79.3232 24.5025 81.5017 26.7148C83.6801 28.9271 86.4329 30.0332 89.7598 30.0332H96.1602C99.5124 30.0332 102.265 28.9271 104.435 26.7148C106.605 24.5025 107.686 21.7161 107.686 18.3385C107.686 14.9862 106.614 12.2843 104.469 10.2323C102.324 8.17194 99.5546 7.15039 96.1602 7.15039H89.7598Z" fill="white"/>
</g>
<defs>
<clipPath id="clip0_1217_7180">
<rect width="173.94" height="23.5282" fill="white" transform="translate(50.0776 6.66211)"/>
</clipPath>
</defs>
</svg>
