<?xml version="1.0" encoding="utf-8"?>
<!-- Generator: Adobe Illustrator 23.0.3, SVG Export Plug-In . SVG Version: 6.00 Build 0)  -->
<svg version="1.1" id="Layer_1" xmlns="http://www.w3.org/2000/svg" xmlns:xlink="http://www.w3.org/1999/xlink" x="0px" y="0px"
	 viewBox="0 0 1099 321.8" style="enable-background:new 0 0 1099 321.8;" xml:space="preserve">
<style type="text/css">
	.st0{enable-background:new    ;}
	.st1{fill:#093266;}
	.st2{fill:#A1ABB2;}
</style>
<g id="Guides_For_Artboard">
</g>
<g id="Layer_1_1_">
	<g class="st0">
		<path class="st1" d="M364,208V102h79.8v9.3H376v39h57.2v8.7H376v49H364z"/>
		<path class="st1" d="M464.8,208V102h12v106H464.8z"/>
		<path class="st1" d="M519.2,121.4V208h-12V102h9.2l80.4,88.2v-88h12V208h-10.4L519.2,121.4z"/>
		<path class="st1" d="M677,102h10.1l50.5,106h-12.7l-15.7-33.1h-54.6L639,208h-12.8L677,102z M706.4,166.6L682,114.3l-24.8,52.4
			h49.2V166.6z"/>
		<path class="st1" d="M755,208V102h51.3c5.2,0,10.1,1,14.5,2.9s8.2,4.5,11.4,7.6s5.7,6.7,7.4,10.7c1.8,4,2.7,8,2.7,12.1
			c0,3.9-0.7,7.6-2,11.1s-3.1,6.7-5.5,9.6c-2.3,2.8-5.2,5.2-8.5,7.2c-3.3,1.9-7,3.3-11.1,4l29.8,40.9h-13.5L803,168.9h-36V208H755z
			 M767,159.6h39.7c3.5,0,6.8-0.7,9.7-2s5.4-3.2,7.4-5.4c2.1-2.3,3.7-4.9,4.8-7.8c1.1-2.9,1.7-5.9,1.7-9.1c0-3.2-0.7-6.2-2-9.2
			c-1.3-2.9-3.1-5.5-5.3-7.7s-4.9-3.9-7.9-5.2c-3-1.3-6.2-1.9-9.5-1.9H767V159.6z"/>
		<path class="st1" d="M951.2,111.3h-43.3V208h-12v-96.7h-43.3V102h98.6V111.3z"/>
		<path class="st1" d="M969.3,208V102h12v106H969.3z"/>
		<path class="st1" d="M1082.8,121.9c-3.4-3.4-8-6.1-13.7-8.2s-12.2-3.1-19.5-3.1c-10.7,0-18.5,1.8-23.4,5.3s-7.4,8.3-7.4,14.4
			c0,3.2,0.7,5.8,2,7.8s3.3,3.8,6.1,5.3s6.2,2.8,10.5,3.9c4.3,1.1,9.3,2.2,15.1,3.3c6.5,1.2,12.3,2.5,17.5,4s9.6,3.4,13.3,5.6
			c3.7,2.2,6.4,5,8.4,8.1c1.9,3.2,2.9,7.2,2.9,11.9c0,4.9-1.1,9.1-3.3,12.7c-2.2,3.6-5.2,6.6-9.1,9s-8.5,4.2-13.9,5.3
			s-11.2,1.7-17.6,1.7c-18.8,0-35.1-5.1-48.8-15.4l6-8.5c2.2,2,4.8,3.9,7.8,5.7s6.4,3.4,10.1,4.7s7.7,2.4,11.9,3.1
			c4.2,0.7,8.7,1.1,13.3,1.1c9.7,0,17.3-1.5,22.7-4.6c5.4-3,8.1-7.6,8.1-13.8c0-3.3-0.8-6-2.3-8.3c-1.5-2.2-3.9-4.2-6.9-5.8
			s-6.9-3.1-11.5-4.3s-9.9-2.4-15.9-3.6c-6.4-1.3-12-2.6-16.8-4c-4.8-1.4-8.8-3.1-12.2-5.2c-3.3-2.1-5.8-4.6-7.4-7.5
			c-1.7-2.9-2.5-6.5-2.5-10.8c0-4.9,1.1-9.2,3.2-13.1c2.1-3.8,5.1-7,9-9.6c3.9-2.5,8.4-4.5,13.7-5.8c5.2-1.3,11.1-2,17.5-2
			c8.1,0,15.3,1.1,21.7,3.2c6.3,2.1,12.1,5.1,17.2,9L1082.8,121.9z"/>
	</g>
	<path class="st1" d="M197.6,71.9c-55.4,30.2-96.4,52.6-151.8,82.8C15.7,171,8,173.5,8,206.5c0,8.9,0,17.8,0,26.6
		c9.4,5,18.7,9.9,28.1,14.9c0-9.8,0-19.6-0.1-29.3c-0.1-32.5,3.8-29.1,34.5-46c45-24.7,82-45,127-69.7
		C197.6,92.5,197.6,82.2,197.6,71.9L197.6,71.9z M8,147.4c0-11,0-20.8,0-30.6c0-31.6,1.3-28.7,30.9-44.2
		C76.8,52.8,108,36.4,146,16.5c10,5.3,20,10.6,30,15.9c-40.1,20.4-73.5,37.4-113.6,57.9c-20.8,10.6-26.7,8.8-26.7,29.7
		c0,4.2,0,8.3,0,12.5C26.5,137.5,17.2,142.5,8,147.4z"/>
	<path class="st2" d="M92.9,249.9c55.4-30.2,96.4-52.6,151.8-82.8c30.1-16.4,37.8-18.8,37.8-51.8c0-8.9,0-17.8,0-26.6
		c-9.4-5-18.7-9.9-28.1-14.9c0,9.8,0,19.6,0.1,29.3c0.1,32.5-3.8,29.1-34.5,46c-45,24.7-82,45-127,69.7
		C92.9,229.3,92.9,239.6,92.9,249.9L92.9,249.9z M282.5,174.4c0,11,0,20.8,0,30.6c0,31.6-1.3,28.7-30.9,44.2
		c-37.9,19.8-69.1,36.2-107.1,56.1c-10-5.3-20-10.6-30-15.9C154.6,269,188,252,228.1,231.5c20.8-10.6,26.7-8.8,26.7-29.7
		c0-4.2,0-8.3,0-12.5C264,184.3,273.3,179.3,282.5,174.4z"/>
</g>
</svg>
