<?xml version="1.0" encoding="UTF-8" standalone="no"?>
<svg xmlns:dc="http://purl.org/dc/elements/1.1/" xmlns:cc="http://creativecommons.org/ns#" xmlns:rdf="http://www.w3.org/1999/02/22-rdf-syntax-ns#" xmlns:svg="http://www.w3.org/2000/svg" xmlns="http://www.w3.org/2000/svg" xmlns:sodipodi="http://sodipodi.sourceforge.net/DTD/sodipodi-0.dtd" xmlns:inkscape="http://www.inkscape.org/namespaces/inkscape" id="Layer_1" viewBox="0 0 938.13 191" version="1.1" sodipodi:docname="Moneythor logo colour.svg" width="938.13" height="191" inkscape:version="0.92.3 (2405546, 2018-03-11)">
  <metadata id="metadata75"></metadata>
  <defs id="defs4">
    <style id="style2">.cls-1{fill:#a9df86;}.cls-1,.cls-2{stroke-width:0px;}.cls-2{fill:#003a3d;}</style>
  </defs>
  <path class="cls-1" d="m 3.03,177.57 17.44,-40.83 h 6.83 l 17.33,40.83 H 37.8 L 26.72,151.55 c -0.19,-0.47 -0.46,-1.16 -0.79,-2.07 -0.33,-0.91 -0.69,-1.9 -1.08,-2.95 -0.39,-1.05 -0.76,-2.05 -1.11,-3 -0.35,-0.95 -0.62,-1.7 -0.82,-2.25 l 1.58,-0.06 c -0.27,0.78 -0.57,1.63 -0.9,2.57 -0.33,0.93 -0.68,1.89 -1.05,2.86 -0.37,0.97 -0.73,1.9 -1.08,2.77 -0.35,0.87 -0.66,1.66 -0.93,2.36 L 9.51,177.56 H 3.03 Z m 7.64,-9.92 2.45,-6.07 h 20.77 l 2.04,6.07 z" id="path6" inkscape:connector-curvature="0" style="fill:#a9df86;stroke-width:0px"></path>
  <path class="cls-1" d="m 67.43,178.15 c -3.15,0 -5.96,-0.7 -8.43,-2.1 -2.47,-1.4 -4.43,-3.3 -5.89,-5.72 -1.46,-2.41 -2.19,-5.11 -2.19,-8.11 0,-3 0.73,-5.7 2.19,-8.11 1.46,-2.41 3.42,-4.32 5.89,-5.72 2.47,-1.4 5.28,-2.1 8.43,-2.1 3.15,0 5.89,0.54 8.46,1.63 2.57,1.09 4.55,2.57 5.95,4.43 l -3.33,4.43 c -0.82,-0.93 -1.82,-1.79 -3,-2.57 -1.19,-0.78 -2.45,-1.39 -3.79,-1.84 -1.34,-0.45 -2.65,-0.67 -3.94,-0.67 -2.1,0 -3.98,0.46 -5.63,1.37 -1.65,0.91 -2.95,2.17 -3.88,3.76 -0.93,1.6 -1.4,3.38 -1.4,5.37 0,1.99 0.5,3.76 1.49,5.34 0.99,1.57 2.31,2.83 3.97,3.76 1.65,0.93 3.49,1.4 5.51,1.4 1.48,0 2.85,-0.19 4.11,-0.58 1.26,-0.39 2.45,-0.92 3.56,-1.6 1.11,-0.68 2.11,-1.45 3,-2.3 l 3.33,4.32 c -1.63,1.56 -3.7,2.88 -6.21,3.97 -2.51,1.09 -5.24,1.63 -8.2,1.63 z" id="path8" inkscape:connector-curvature="0" style="fill:#a9df86;stroke-width:0px"></path>
  <path class="cls-1" d="M 117.54,190.63 V 169.8 l 1.17,0.18 c 0,0.93 -0.35,1.87 -1.05,2.8 -0.7,0.93 -1.66,1.81 -2.89,2.62 -1.23,0.81 -2.6,1.48 -4.11,1.98 -1.51,0.5 -3.09,0.76 -4.73,0.76 -3.15,0 -5.93,-0.69 -8.34,-2.07 -2.41,-1.38 -4.29,-3.27 -5.63,-5.66 -1.34,-2.39 -2.01,-5.12 -2.01,-8.2 0,-3.08 0.69,-5.8 2.07,-8.2 1.38,-2.39 3.28,-4.28 5.69,-5.66 2.41,-1.38 5.15,-2.07 8.23,-2.07 1.83,0 3.54,0.25 5.13,0.76 1.59,0.51 3.01,1.18 4.26,2.01 1.24,0.84 2.22,1.75 2.92,2.74 0.7,0.99 1.05,1.97 1.05,2.95 l -1.75,0.12 v -7.99 h 6.01 v 43.75 h -6.01 z m -10.68,-18.02 c 2.14,0 4.03,-0.45 5.69,-1.34 1.65,-0.89 2.94,-2.13 3.85,-3.7 0.91,-1.58 1.37,-3.35 1.37,-5.34 0,-1.99 -0.46,-3.76 -1.37,-5.34 -0.91,-1.58 -2.2,-2.81 -3.85,-3.7 -1.65,-0.89 -3.55,-1.34 -5.69,-1.34 -2.14,0 -4.08,0.46 -5.72,1.37 -1.63,0.91 -2.93,2.15 -3.88,3.7 -0.95,1.56 -1.43,3.33 -1.43,5.31 0,1.98 0.48,3.76 1.43,5.34 0.95,1.57 2.25,2.81 3.88,3.7 1.63,0.89 3.54,1.34 5.72,1.34 z" id="path10" inkscape:connector-curvature="0" style="fill:#a9df86;stroke-width:0px"></path>
  <path class="cls-1" d="m 149.68,178.15 c -2.37,0 -4.45,-0.55 -6.24,-1.66 -1.79,-1.11 -3.18,-2.68 -4.17,-4.73 -0.99,-2.04 -1.49,-4.48 -1.49,-7.32 v -17.5 h 6.01 v 15.63 c 0,2.14 0.31,3.96 0.93,5.45 0.62,1.5 1.56,2.64 2.8,3.41 1.24,0.78 2.78,1.17 4.61,1.17 1.32,0 2.55,-0.21 3.67,-0.64 1.13,-0.43 2.11,-1.03 2.95,-1.81 0.84,-0.78 1.5,-1.71 1.98,-2.8 0.49,-1.09 0.73,-2.29 0.73,-3.62 v -16.8 h 6.01 v 30.62 h -6.01 v -6.42 l 1.05,-0.7 c -0.47,1.32 -1.3,2.58 -2.51,3.76 -1.21,1.19 -2.68,2.14 -4.43,2.86 -1.75,0.72 -3.71,1.08 -5.89,1.08 z" id="path12" inkscape:connector-curvature="0" style="fill:#a9df86;stroke-width:0px"></path>
  <path class="cls-1" d="m 185.79,139.94 c -1.28,0 -2.27,-0.33 -2.97,-0.99 -0.7,-0.66 -1.05,-1.59 -1.05,-2.8 0,-1.13 0.36,-2.04 1.08,-2.74 0.72,-0.7 1.7,-1.05 2.95,-1.05 1.25,0 2.28,0.33 2.98,0.99 0.7,0.66 1.05,1.59 1.05,2.8 0,1.13 -0.36,2.04 -1.08,2.74 -0.72,0.7 -1.7,1.05 -2.95,1.05 z m -2.92,37.63 v -30.62 h 6.01 v 30.62 z" id="path14" inkscape:connector-curvature="0" style="fill:#a9df86;stroke-width:0px"></path>
  <path class="cls-1" d="m 204.57,177.57 v -30.62 h 6.07 v 10.21 l -1.05,-1.52 c 0.5,-1.71 1.36,-3.28 2.57,-4.7 1.21,-1.42 2.59,-2.55 4.14,-3.38 1.56,-0.84 3.17,-1.25 4.84,-1.25 0.97,0 1.92,0.1 2.83,0.29 0.91,0.2 1.62,0.45 2.13,0.76 l -1.58,6.42 c -0.62,-0.35 -1.35,-0.62 -2.19,-0.82 -0.84,-0.19 -1.64,-0.29 -2.42,-0.29 -1.32,0 -2.55,0.24 -3.67,0.73 -1.13,0.49 -2.11,1.14 -2.95,1.95 -0.84,0.82 -1.49,1.74 -1.95,2.77 -0.47,1.03 -0.7,2.11 -0.7,3.24 v 16.22 h -6.07 z" id="path16" inkscape:connector-curvature="0" style="fill:#a9df86;stroke-width:0px"></path>
  <path class="cls-1" d="m 250.19,178.15 c -3.5,0 -6.61,-0.67 -9.33,-2.01 -2.72,-1.34 -4.85,-3.18 -6.39,-5.51 -1.54,-2.33 -2.3,-5.02 -2.3,-8.05 0,-2.49 0.45,-4.72 1.34,-6.71 0.89,-1.98 2.13,-3.69 3.7,-5.13 1.57,-1.44 3.43,-2.55 5.57,-3.32 2.14,-0.78 4.43,-1.17 6.88,-1.17 2.22,0 4.29,0.37 6.21,1.11 1.93,0.74 3.61,1.77 5.05,3.09 1.44,1.32 2.56,2.89 3.35,4.7 0.8,1.81 1.18,3.8 1.14,5.98 l -0.06,2.8 h -28.29 l -1.34,-4.78 h 24.44 l -0.87,0.76 v -1.4 c -0.16,-1.28 -0.7,-2.43 -1.63,-3.44 -0.93,-1.01 -2.1,-1.81 -3.5,-2.39 -1.4,-0.58 -2.9,-0.88 -4.49,-0.88 -2.33,0 -4.37,0.37 -6.1,1.11 -1.73,0.74 -3.07,1.88 -4.03,3.41 -0.95,1.54 -1.43,3.49 -1.43,5.86 0,2.14 0.54,3.99 1.63,5.54 1.09,1.56 2.6,2.76 4.55,3.62 1.94,0.86 4.18,1.28 6.71,1.28 2.18,0 4.06,-0.31 5.66,-0.93 1.59,-0.62 3.11,-1.48 4.55,-2.57 l 2.86,4.38 c -1.01,0.86 -2.28,1.64 -3.79,2.36 -1.51,0.72 -3.14,1.28 -4.87,1.69 -1.73,0.41 -3.47,0.61 -5.22,0.61 z" id="path18" inkscape:connector-curvature="0" style="fill:#a9df86;stroke-width:0px"></path>
  <path class="cls-1" d="m 280.58,178.21 c -1.59,0 -2.8,-0.39 -3.62,-1.17 -0.82,-0.78 -1.23,-1.85 -1.23,-3.21 0,-1.21 0.42,-2.24 1.25,-3.09 0.84,-0.85 2.03,-1.28 3.59,-1.28 1.56,0 2.8,0.39 3.62,1.17 0.82,0.78 1.23,1.85 1.23,3.21 0,1.21 -0.42,2.24 -1.25,3.09 -0.84,0.85 -2.03,1.28 -3.59,1.28 z" id="path20" inkscape:connector-curvature="0" style="fill:#a9df86;stroke-width:0px"></path>
  <path class="cls-1" d="m 315.11,177.57 17.44,-40.83 h 6.83 l 17.33,40.83 h -6.83 L 338.8,151.55 c -0.19,-0.47 -0.46,-1.16 -0.79,-2.07 -0.33,-0.91 -0.69,-1.9 -1.08,-2.95 -0.39,-1.05 -0.76,-2.05 -1.11,-3 -0.35,-0.95 -0.62,-1.7 -0.82,-2.25 l 1.58,-0.06 c -0.27,0.78 -0.57,1.63 -0.9,2.57 -0.33,0.93 -0.68,1.89 -1.05,2.86 -0.37,0.97 -0.73,1.9 -1.08,2.77 -0.35,0.87 -0.66,1.66 -0.93,2.36 l -11.03,25.78 h -6.48 z m 7.64,-9.92 2.45,-6.07 h 20.77 l 2.04,6.07 z" id="path22" inkscape:connector-curvature="0" style="fill:#a9df86;stroke-width:0px"></path>
  <path class="cls-1" d="m 379.51,178.15 c -3.15,0 -5.96,-0.7 -8.43,-2.1 -2.47,-1.4 -4.43,-3.3 -5.89,-5.72 -1.46,-2.41 -2.19,-5.11 -2.19,-8.11 0,-3 0.73,-5.7 2.19,-8.11 1.46,-2.41 3.42,-4.32 5.89,-5.72 2.47,-1.4 5.28,-2.1 8.43,-2.1 3.15,0 5.89,0.54 8.46,1.63 2.57,1.09 4.55,2.57 5.95,4.43 l -3.33,4.43 c -0.82,-0.93 -1.82,-1.79 -3,-2.57 -1.19,-0.78 -2.45,-1.39 -3.79,-1.84 -1.34,-0.45 -2.65,-0.67 -3.94,-0.67 -2.1,0 -3.98,0.46 -5.63,1.37 -1.65,0.91 -2.95,2.17 -3.88,3.76 -0.93,1.6 -1.4,3.38 -1.4,5.37 0,1.99 0.5,3.76 1.49,5.34 0.99,1.57 2.31,2.83 3.97,3.76 1.65,0.93 3.49,1.4 5.51,1.4 1.48,0 2.85,-0.19 4.11,-0.58 1.26,-0.39 2.45,-0.92 3.56,-1.6 1.11,-0.68 2.11,-1.45 3,-2.3 l 3.33,4.32 c -1.63,1.56 -3.7,2.88 -6.21,3.97 -2.51,1.09 -5.24,1.63 -8.2,1.63 z" id="path24" inkscape:connector-curvature="0" style="fill:#a9df86;stroke-width:0px"></path>
  <path class="cls-1" d="m 401.74,152.77 v -5.83 h 22.75 v 5.83 z m 7.76,24.8 v -39.14 h 6.01 v 39.14 z" id="path26" inkscape:connector-curvature="0" style="fill:#a9df86;stroke-width:0px"></path>
  <path class="cls-1" d="m 439.89,139.94 c -1.28,0 -2.27,-0.33 -2.97,-0.99 -0.7,-0.66 -1.05,-1.59 -1.05,-2.8 0,-1.13 0.36,-2.04 1.08,-2.74 0.72,-0.7 1.7,-1.05 2.95,-1.05 1.25,0 2.28,0.33 2.98,0.99 0.7,0.66 1.05,1.59 1.05,2.8 0,1.13 -0.36,2.04 -1.08,2.74 -0.72,0.7 -1.7,1.05 -2.95,1.05 z m -2.92,37.63 v -30.62 h 6.01 v 30.62 z" id="path28" inkscape:connector-curvature="0" style="fill:#a9df86;stroke-width:0px"></path>
  <path class="cls-1" d="m 468.53,177.57 -14.76,-30.62 h 6.71 l 11.2,24.15 -1.34,0.52 11.84,-24.67 h 6.42 l -15.28,30.62 h -4.78 z" id="path30" inkscape:connector-curvature="0" style="fill:#a9df86;stroke-width:0px"></path>
  <path class="cls-1" d="m 510.12,178.15 c -3,0 -5.66,-0.69 -7.99,-2.07 -2.33,-1.38 -4.17,-3.28 -5.51,-5.69 -1.34,-2.41 -2.01,-5.15 -2.01,-8.23 0,-3.08 0.69,-5.8 2.07,-8.2 1.38,-2.39 3.28,-4.27 5.69,-5.63 2.41,-1.36 5.15,-2.04 8.23,-2.04 1.87,0 3.59,0.24 5.16,0.73 1.58,0.49 2.95,1.16 4.11,2.01 1.17,0.86 2.1,1.8 2.8,2.83 0.7,1.03 1.09,2.11 1.17,3.24 l -1.46,-0.23 v -7.93 h 6.01 v 30.62 h -6.01 v -7.76 l 1.28,-0.06 c -0.16,0.97 -0.61,1.95 -1.37,2.95 -0.76,0.99 -1.77,1.9 -3.03,2.71 -1.26,0.82 -2.67,1.48 -4.23,1.98 -1.56,0.5 -3.19,0.76 -4.9,0.76 z m 1.52,-5.54 c 2.14,0 4.03,-0.45 5.69,-1.34 1.65,-0.89 2.95,-2.13 3.88,-3.7 0.93,-1.58 1.4,-3.37 1.4,-5.4 0,-2.03 -0.47,-3.69 -1.4,-5.25 -0.93,-1.55 -2.23,-2.79 -3.88,-3.7 -1.65,-0.91 -3.55,-1.37 -5.69,-1.37 -2.14,0 -4.02,0.46 -5.66,1.37 -1.63,0.91 -2.92,2.15 -3.85,3.7 -0.93,1.56 -1.4,3.31 -1.4,5.25 0,1.94 0.47,3.82 1.4,5.4 0.93,1.57 2.22,2.81 3.85,3.7 1.63,0.89 3.52,1.34 5.66,1.34 z" id="path32" inkscape:connector-curvature="0" style="fill:#a9df86;stroke-width:0px"></path>
  <path class="cls-1" d="m 539.46,152.77 v -5.83 h 22.75 v 5.83 z m 7.76,24.8 v -39.14 h 6.01 v 39.14 z" id="path34" inkscape:connector-curvature="0" style="fill:#a9df86;stroke-width:0px"></path>
  <path class="cls-1" d="m 588.41,178.15 c -3.5,0 -6.61,-0.67 -9.33,-2.01 -2.72,-1.34 -4.85,-3.18 -6.39,-5.51 -1.54,-2.33 -2.3,-5.02 -2.3,-8.05 0,-2.49 0.45,-4.72 1.34,-6.71 0.89,-1.98 2.13,-3.69 3.7,-5.13 1.57,-1.44 3.43,-2.55 5.57,-3.32 2.14,-0.78 4.43,-1.17 6.88,-1.17 2.22,0 4.29,0.37 6.21,1.11 1.93,0.74 3.61,1.77 5.05,3.09 1.44,1.32 2.56,2.89 3.35,4.7 0.8,1.81 1.18,3.8 1.14,5.98 l -0.06,2.8 h -28.29 l -1.34,-4.78 h 24.44 l -0.88,0.76 v -1.4 c -0.16,-1.28 -0.7,-2.43 -1.63,-3.44 -0.93,-1.01 -2.1,-1.81 -3.5,-2.39 -1.4,-0.58 -2.9,-0.88 -4.49,-0.88 -2.33,0 -4.37,0.37 -6.1,1.11 -1.73,0.74 -3.07,1.88 -4.03,3.41 -0.95,1.54 -1.43,3.49 -1.43,5.86 0,2.14 0.54,3.99 1.63,5.54 1.09,1.56 2.6,2.76 4.55,3.62 1.94,0.86 4.18,1.28 6.71,1.28 2.18,0 4.06,-0.31 5.66,-0.93 1.59,-0.62 3.11,-1.48 4.55,-2.57 l 2.86,4.38 c -1.01,0.86 -2.28,1.64 -3.79,2.36 -1.51,0.72 -3.14,1.28 -4.87,1.69 -1.73,0.41 -3.47,0.61 -5.22,0.61 z" id="path36" inkscape:connector-curvature="0" style="fill:#a9df86;stroke-width:0px"></path>
  <path class="cls-1" d="m 618.8,178.21 c -1.59,0 -2.8,-0.39 -3.62,-1.17 -0.82,-0.78 -1.23,-1.85 -1.23,-3.21 0,-1.21 0.42,-2.24 1.25,-3.09 0.84,-0.85 2.03,-1.28 3.59,-1.28 1.56,0 2.8,0.39 3.62,1.17 0.82,0.78 1.23,1.85 1.23,3.21 0,1.21 -0.42,2.24 -1.25,3.09 -0.84,0.85 -2.03,1.28 -3.59,1.28 z" id="path38" inkscape:connector-curvature="0" style="fill:#a9df86;stroke-width:0px"></path>
  <path class="cls-1" d="m 658,177.57 v -40.83 h 28.99 v 6.07 H 664.3 v 28.7 h 22.69 v 6.07 H 658 Z m 3.09,-17.91 v -6.07 h 22.69 v 6.07 z" id="path40" inkscape:connector-curvature="0" style="fill:#a9df86;stroke-width:0px"></path>
  <path class="cls-1" d="M 700.99,177.57 V 146.95 H 707 v 7.23 l -1.52,0.47 c 0.58,-1.4 1.5,-2.73 2.74,-4 1.24,-1.26 2.73,-2.3 4.46,-3.12 1.73,-0.82 3.57,-1.22 5.51,-1.22 2.68,0 4.93,0.52 6.74,1.55 1.81,1.03 3.16,2.5 4.05,4.4 0.89,1.91 1.34,4.2 1.34,6.88 v 18.43 h -6.01 v -17.79 c 0,-1.75 -0.32,-3.22 -0.96,-4.4 -0.64,-1.19 -1.56,-2.08 -2.74,-2.68 -1.19,-0.6 -2.58,-0.88 -4.17,-0.85 -1.36,0 -2.62,0.23 -3.76,0.7 -1.15,0.47 -2.15,1.09 -3,1.87 -0.86,0.78 -1.52,1.64 -1.98,2.6 -0.46,0.96 -0.7,1.93 -0.7,2.95 v 17.62 h -6.01 z" id="path42" inkscape:connector-curvature="0" style="fill:#a9df86;stroke-width:0px"></path>
  <path class="cls-1" d="m 760.26,190.98 c -2.72,0 -5.23,-0.35 -7.53,-1.05 -2.29,-0.7 -4.14,-1.58 -5.54,-2.62 l 2.16,-4.78 c 0.82,0.5 1.79,0.99 2.92,1.46 1.13,0.47 2.37,0.85 3.73,1.17 1.36,0.31 2.78,0.47 4.26,0.47 2.18,0 4.04,-0.39 5.6,-1.17 1.55,-0.78 2.76,-1.93 3.62,-3.44 0.85,-1.52 1.28,-3.36 1.28,-5.54 v -4.96 l 0.64,0.41 c -0.23,1.17 -0.98,2.3 -2.25,3.41 -1.26,1.11 -2.84,2.02 -4.73,2.74 -1.89,0.72 -3.86,1.08 -5.92,1.08 -3.15,0 -5.94,-0.69 -8.37,-2.07 -2.43,-1.38 -4.35,-3.27 -5.75,-5.66 -1.4,-2.39 -2.1,-5.12 -2.1,-8.2 0,-3.08 0.71,-5.8 2.13,-8.2 1.42,-2.39 3.37,-4.28 5.86,-5.66 2.49,-1.38 5.33,-2.07 8.52,-2.07 1.05,0 2.17,0.14 3.35,0.41 1.19,0.27 2.34,0.65 3.47,1.14 1.13,0.49 2.16,1.04 3.09,1.66 0.93,0.62 1.7,1.29 2.3,2.01 0.6,0.72 0.94,1.43 1.02,2.13 l -1.28,0.47 v -7.17 h 6.01 v 27.83 c 0,2.68 -0.42,5.03 -1.25,7.03 -0.84,2 -1.99,3.68 -3.47,5.05 -1.48,1.36 -3.23,2.39 -5.25,3.09 -2.02,0.7 -4.2,1.05 -6.53,1.05 z m -0.41,-18.37 c 2.18,0 4.11,-0.45 5.8,-1.34 1.69,-0.89 3,-2.12 3.94,-3.68 0.93,-1.55 1.4,-3.34 1.4,-5.37 0,-2.03 -0.48,-3.82 -1.43,-5.4 -0.95,-1.58 -2.27,-2.81 -3.94,-3.71 -1.67,-0.89 -3.6,-1.34 -5.78,-1.34 -2.18,0 -4.18,0.46 -5.89,1.37 -1.71,0.91 -3.06,2.16 -4.05,3.73 -0.99,1.57 -1.49,3.35 -1.49,5.34 0,1.99 0.5,3.76 1.49,5.34 0.99,1.57 2.34,2.81 4.05,3.7 1.71,0.89 3.68,1.34 5.89,1.34 z" id="path44" inkscape:connector-curvature="0" style="fill:#a9df86;stroke-width:0px"></path>
  <path class="cls-1" d="m 803.6,178.15 c -3,0 -5.66,-0.69 -7.99,-2.07 -2.33,-1.38 -4.17,-3.28 -5.51,-5.69 -1.34,-2.41 -2.01,-5.15 -2.01,-8.23 0,-3.08 0.69,-5.8 2.07,-8.2 1.38,-2.39 3.28,-4.27 5.69,-5.63 2.41,-1.36 5.15,-2.04 8.23,-2.04 1.87,0 3.59,0.24 5.16,0.73 1.58,0.49 2.95,1.16 4.11,2.01 1.17,0.86 2.1,1.8 2.8,2.83 0.7,1.03 1.09,2.11 1.17,3.24 l -1.46,-0.23 v -7.93 h 6.01 v 30.62 h -6.01 v -7.76 l 1.28,-0.06 c -0.16,0.97 -0.61,1.95 -1.37,2.95 -0.76,0.99 -1.77,1.9 -3.03,2.71 -1.26,0.82 -2.67,1.48 -4.23,1.98 -1.56,0.5 -3.19,0.76 -4.9,0.76 z m 1.51,-5.54 c 2.14,0 4.03,-0.45 5.69,-1.34 1.65,-0.89 2.95,-2.13 3.88,-3.7 0.93,-1.58 1.4,-3.37 1.4,-5.4 0,-2.03 -0.47,-3.69 -1.4,-5.25 -0.93,-1.55 -2.23,-2.79 -3.88,-3.7 -1.65,-0.91 -3.55,-1.37 -5.69,-1.37 -2.14,0 -4.02,0.46 -5.66,1.37 -1.63,0.91 -2.92,2.15 -3.85,3.7 -0.93,1.56 -1.4,3.31 -1.4,5.25 0,1.94 0.47,3.82 1.4,5.4 0.93,1.57 2.22,2.81 3.85,3.7 1.63,0.89 3.52,1.34 5.66,1.34 z" id="path46" inkscape:connector-curvature="0" style="fill:#a9df86;stroke-width:0px"></path>
  <path class="cls-1" d="m 851.43,190.98 c -2.72,0 -5.23,-0.35 -7.53,-1.05 -2.29,-0.7 -4.14,-1.58 -5.54,-2.62 l 2.16,-4.78 c 0.82,0.5 1.79,0.99 2.92,1.46 1.13,0.47 2.37,0.85 3.73,1.17 1.36,0.31 2.78,0.47 4.26,0.47 2.18,0 4.04,-0.39 5.6,-1.17 1.55,-0.78 2.76,-1.93 3.62,-3.44 0.85,-1.52 1.28,-3.36 1.28,-5.54 v -4.96 l 0.64,0.41 c -0.23,1.17 -0.98,2.3 -2.25,3.41 -1.26,1.11 -2.84,2.02 -4.73,2.74 -1.89,0.72 -3.86,1.08 -5.92,1.08 -3.15,0 -5.94,-0.69 -8.37,-2.07 -2.43,-1.38 -4.35,-3.27 -5.75,-5.66 -1.4,-2.39 -2.1,-5.12 -2.1,-8.2 0,-3.08 0.71,-5.8 2.13,-8.2 1.42,-2.39 3.37,-4.28 5.86,-5.66 2.49,-1.38 5.33,-2.07 8.52,-2.07 1.05,0 2.17,0.14 3.35,0.41 1.19,0.27 2.34,0.65 3.47,1.14 1.13,0.49 2.16,1.04 3.09,1.66 0.93,0.62 1.7,1.29 2.3,2.01 0.6,0.72 0.94,1.43 1.02,2.13 l -1.28,0.47 v -7.17 h 6.01 v 27.83 c 0,2.68 -0.42,5.03 -1.25,7.03 -0.84,2 -1.99,3.68 -3.47,5.05 -1.48,1.36 -3.23,2.39 -5.25,3.09 -2.02,0.7 -4.2,1.05 -6.53,1.05 z m -0.41,-18.37 c 2.18,0 4.11,-0.45 5.8,-1.34 1.69,-0.89 3,-2.12 3.94,-3.68 0.93,-1.55 1.4,-3.34 1.4,-5.37 0,-2.03 -0.48,-3.82 -1.43,-5.4 -0.95,-1.58 -2.27,-2.81 -3.94,-3.71 -1.67,-0.89 -3.6,-1.34 -5.78,-1.34 -2.18,0 -4.18,0.46 -5.89,1.37 -1.71,0.91 -3.06,2.16 -4.05,3.73 -0.99,1.57 -1.49,3.35 -1.49,5.34 0,1.99 0.5,3.76 1.49,5.34 0.99,1.57 2.34,2.81 4.05,3.7 1.71,0.89 3.68,1.34 5.89,1.34 z" id="path48" inkscape:connector-curvature="0" style="fill:#a9df86;stroke-width:0px"></path>
  <path class="cls-1" d="m 897.34,178.15 c -3.5,0 -6.61,-0.67 -9.33,-2.01 -2.72,-1.34 -4.85,-3.18 -6.39,-5.51 -1.54,-2.33 -2.3,-5.02 -2.3,-8.05 0,-2.49 0.45,-4.72 1.34,-6.71 0.89,-1.98 2.13,-3.69 3.7,-5.13 1.57,-1.44 3.43,-2.55 5.57,-3.32 2.14,-0.78 4.43,-1.17 6.88,-1.17 2.22,0 4.29,0.37 6.21,1.11 1.92,0.74 3.61,1.77 5.05,3.09 1.44,1.32 2.56,2.89 3.35,4.7 0.8,1.81 1.18,3.8 1.14,5.98 l -0.06,2.8 h -28.29 l -1.34,-4.78 h 24.44 l -0.88,0.76 v -1.4 c -0.16,-1.28 -0.7,-2.43 -1.63,-3.44 -0.93,-1.01 -2.1,-1.81 -3.5,-2.39 -1.4,-0.58 -2.9,-0.88 -4.49,-0.88 -2.33,0 -4.37,0.37 -6.1,1.11 -1.73,0.74 -3.07,1.88 -4.03,3.41 -0.95,1.54 -1.43,3.49 -1.43,5.86 0,2.14 0.54,3.99 1.63,5.54 1.09,1.56 2.61,2.76 4.55,3.62 1.94,0.86 4.18,1.28 6.71,1.28 2.18,0 4.06,-0.31 5.66,-0.93 1.6,-0.62 3.11,-1.48 4.55,-2.57 l 2.86,4.38 c -1.01,0.86 -2.27,1.64 -3.79,2.36 -1.52,0.72 -3.14,1.28 -4.87,1.69 -1.73,0.41 -3.47,0.61 -5.22,0.61 z" id="path50" inkscape:connector-curvature="0" style="fill:#a9df86;stroke-width:0px"></path>
  <path class="cls-1" d="m 927.73,178.21 c -1.6,0 -2.8,-0.39 -3.62,-1.17 -0.82,-0.78 -1.22,-1.85 -1.22,-3.21 0,-1.21 0.42,-2.24 1.25,-3.09 0.84,-0.85 2.03,-1.28 3.59,-1.28 1.56,0 2.8,0.39 3.62,1.17 0.82,0.78 1.23,1.85 1.23,3.21 0,1.21 -0.42,2.24 -1.25,3.09 -0.84,0.85 -2.03,1.28 -3.59,1.28 z" id="path52" inkscape:connector-curvature="0" style="fill:#a9df86;stroke-width:0px"></path>
  <path class="cls-2" d="M 46.25,46.09 18.5,2.12 H 0 V 94.98 H 20.08 V 65.53 c 0,-8.05 -0.18,-15.23 -0.55,-21.56 -0.12,-2.03 -0.27,-4.05 -0.44,-6.08 l 22.9,34.53 h 8.03 L 73.34,37.58 c -0.19,2.26 -0.37,4.53 -0.5,6.79 -0.36,6.41 -0.55,13.47 -0.55,21.16 V 94.98 H 92.37 V 2.12 H 74.36 L 46.24,46.09 Z" id="path54" inkscape:connector-curvature="0" style="fill:#003a3d;stroke-width:0px"></path>
  <path class="cls-2" d="M 198.87,13.73 C 194.57,9.35 189.5,5.97 183.66,3.58 177.82,1.19 171.41,0 164.43,0 c -6.98,0 -13.49,1.19 -19.29,3.58 -5.8,2.39 -10.87,5.77 -15.21,10.15 -4.34,4.38 -7.69,9.49 -10.04,15.32 -2.35,5.84 -3.53,12.21 -3.53,19.1 0,6.89 1.17,13.27 3.53,19.1 2.35,5.84 5.7,10.94 10.04,15.32 4.34,4.38 9.41,7.76 15.21,10.15 5.8,2.39 12.27,3.58 19.41,3.58 7.14,0 13.27,-1.19 19.11,-3.58 5.84,-2.39 10.91,-5.77 15.21,-10.15 4.3,-4.38 7.63,-9.51 9.98,-15.39 2.35,-5.88 3.53,-12.23 3.53,-19.04 0,-6.81 -1.18,-13.27 -3.53,-19.1 -2.35,-5.84 -5.68,-10.94 -9.98,-15.32 z m -9.49,45.17 c -1.3,3.27 -3.16,6.12 -5.6,8.56 -2.43,2.43 -5.29,4.31 -8.58,5.64 -3.29,1.33 -6.88,1.99 -10.77,1.99 -3.89,0 -7.49,-0.66 -10.77,-1.99 -3.29,-1.33 -6.17,-3.2 -8.64,-5.64 -2.48,-2.43 -4.34,-5.28 -5.6,-8.56 -1.26,-3.27 -1.89,-6.85 -1.89,-10.75 0,-3.9 0.63,-7.34 1.89,-10.61 1.26,-3.27 3.12,-6.15 5.6,-8.62 2.47,-2.48 5.35,-4.38 8.64,-5.7 3.29,-1.33 6.88,-1.99 10.77,-1.99 3.89,0 7.49,0.66 10.77,1.99 3.29,1.33 6.15,3.21 8.58,5.64 2.43,2.43 4.3,5.29 5.6,8.56 1.3,3.27 1.95,6.86 1.95,10.75 0,3.89 -0.65,7.47 -1.95,10.75 z" id="path56" inkscape:connector-curvature="0" style="fill:#003a3d;stroke-width:0px"></path>
  <path class="cls-2" d="m 300.98,25.07 v 9.29 c 0,2.92 0.06,5.7 0.18,8.36 0.12,2.65 0.28,5.31 0.49,7.96 0.2,2.65 0.43,5.4 0.67,8.23 0.12,1.35 0.26,2.74 0.43,4.15 L 255.46,2.13 h -18.99 v 92.86 h 20.08 V 63.95 c 0,-2.83 -0.04,-5.44 -0.12,-7.83 -0.08,-2.39 -0.18,-4.66 -0.3,-6.83 -0.12,-2.17 -0.28,-4.33 -0.49,-6.5 -0.2,-2.17 -0.45,-4.49 -0.73,-6.96 -0.04,-0.35 -0.08,-0.73 -0.12,-1.1 L 301.83,95 h 19.23 V 2.14 h -20.08 v 22.95 z" id="path58" inkscape:connector-curvature="0" style="fill:#003a3d;stroke-width:0px"></path>
  <polygon class="cls-2" points="482.31,482.67 441.66,482.67 441.66,465.43 487.79,465.43 487.79,446.19 421.58,446.19 421.58,539.05 489.01,539.05 489.01,519.82 441.66,519.82 441.66,500.98 482.31,500.98 " id="polygon60" style="fill:#003a3d;stroke-width:0px" transform="translate(-70.94,-444.07)"></polygon>
  <polygon class="cls-2" points="527.34,446.19 502.88,446.19 540.37,500.58 540.37,539.05 561.18,539.05 561.18,499.99 596.23,446.19 572.98,446.19 550.88,481.3 " id="polygon62" style="fill:#003a3d;stroke-width:0px" transform="translate(-70.94,-444.07)"></polygon>
  <polygon class="cls-2" points="635.78,539.05 656.47,539.05 656.47,466.09 685.81,466.09 685.81,446.19 607.06,446.19 607.06,466.09 635.78,466.09 " id="polygon64" style="fill:#003a3d;stroke-width:0px" transform="translate(-70.94,-444.07)"></polygon>
  <polygon class="cls-2" points="728.4,446.19 707.71,446.19 707.71,539.05 728.4,539.05 728.4,503.1 767.35,503.1 767.35,539.05 788.04,539.05 788.04,446.19 767.35,446.19 767.35,482.94 728.4,482.94 " id="polygon66" style="fill:#003a3d;stroke-width:0px" transform="translate(-70.94,-444.07)"></polygon>
  <path class="cls-2" d="M 823.35,13.73 C 819.05,9.35 813.98,5.97 808.14,3.58 802.3,1.19 795.89,0 788.91,0 c -6.98,0 -13.49,1.19 -19.29,3.58 -5.8,2.39 -10.87,5.77 -15.21,10.15 -4.34,4.38 -7.69,9.49 -10.04,15.32 -2.35,5.84 -3.53,12.21 -3.53,19.1 0,6.89 1.17,13.27 3.53,19.1 2.35,5.84 5.7,10.94 10.04,15.32 4.34,4.38 9.41,7.76 15.21,10.15 5.8,2.39 12.27,3.58 19.41,3.58 7.14,0 13.27,-1.19 19.11,-3.58 5.84,-2.39 10.91,-5.77 15.21,-10.15 4.3,-4.38 7.63,-9.51 9.98,-15.39 2.35,-5.88 3.53,-12.23 3.53,-19.04 0,-6.81 -1.18,-13.27 -3.53,-19.1 -2.35,-5.84 -5.68,-10.94 -9.98,-15.32 z m -9.49,45.17 c -1.3,3.27 -3.16,6.12 -5.6,8.56 -2.43,2.43 -5.29,4.31 -8.58,5.64 -3.29,1.33 -6.88,1.99 -10.77,1.99 -3.89,0 -7.49,-0.66 -10.77,-1.99 -3.29,-1.33 -6.17,-3.2 -8.64,-5.64 -2.48,-2.43 -4.34,-5.28 -5.6,-8.56 -1.26,-3.27 -1.89,-6.85 -1.89,-10.75 0,-3.9 0.63,-7.34 1.89,-10.61 1.26,-3.27 3.12,-6.15 5.6,-8.62 2.47,-2.48 5.35,-4.38 8.64,-5.7 3.29,-1.33 6.88,-1.99 10.77,-1.99 3.89,0 7.49,0.66 10.77,1.99 3.29,1.33 6.15,3.21 8.58,5.64 2.43,2.43 4.3,5.29 5.6,8.56 1.3,3.27 1.95,6.86 1.95,10.75 0,3.89 -0.65,7.47 -1.95,10.75 z" id="path68" inkscape:connector-curvature="0" style="fill:#003a3d;stroke-width:0px"></path>
  <path class="cls-2" d="m 938.12,94.98 -21.1,-35.33 c 0.69,-0.34 1.38,-0.69 2.05,-1.09 4.58,-2.7 8.19,-6.37 10.83,-11.01 2.64,-4.64 3.96,-9.93 3.96,-15.85 0,-5.92 -1.26,-10.97 -3.77,-15.39 C 927.57,11.89 924.04,8.42 919.5,5.9 914.95,3.38 909.68,2.12 903.68,2.12 h -42.72 v 92.86 h 19.72 V 62.61 h 14.61 l 18.98,32.37 h 23.86 z M 880.67,20.96 h 19.72 c 2.6,0 4.85,0.49 6.75,1.46 1.91,0.97 3.41,2.37 4.5,4.18 1.1,1.81 1.64,3.91 1.64,6.3 0,2.39 -0.51,4.64 -1.52,6.5 -1.02,1.86 -2.39,3.32 -4.14,4.38 -1.75,1.06 -3.75,1.59 -6.02,1.59 h -20.93 z" id="path70" inkscape:connector-curvature="0" style="fill:#003a3d;stroke-width:0px"></path>
</svg>
