<?xml version="1.0" encoding="UTF-8"?>
<svg id="Layer_1" data-name="Layer 1" xmlns="http://www.w3.org/2000/svg" xmlns:xlink="http://www.w3.org/1999/xlink" version="1.1" viewBox="0 0 1366 768">
  <defs>
    <style>
      .cls-1 {
        fill: #2daf4a;
      }

      .cls-1, .cls-2, .cls-3, .cls-4, .cls-5, .cls-6, .cls-7, .cls-8, .cls-9 {
        stroke-width: 0px;
      }

      .cls-2 {
        fill: none;
      }

      .cls-3 {
        fill: #3ab549;
      }

      .cls-4 {
        fill: url(#linear-gradient);
      }

      .cls-5 {
        fill: #000;
      }

      .cls-6 {
        fill: #d82427;
      }

      .cls-7 {
        fill: url(#linear-gradient-2);
      }

      .cls-8 {
        fill: url(#linear-gradient-3);
      }

      .cls-9 {
        fill: #109fda;
      }
    </style>
    <linearGradient id="linear-gradient" x1="482.1" y1="395.9" x2="660.4" y2="421.8" gradientTransform="translate(0 768.1) scale(1 -1)" gradientUnits="userSpaceOnUse">
      <stop offset="0" stop-color="#004a67"/>
      <stop offset="1" stop-color="#109fda"/>
    </linearGradient>
    <linearGradient id="linear-gradient-2" x1="626.5" y1="551.3" x2="694.7" y2="717.7" gradientTransform="translate(0 768.1) scale(1 -1)" gradientUnits="userSpaceOnUse">
      <stop offset="0" stop-color="#d82427"/>
      <stop offset="1" stop-color="#632322"/>
    </linearGradient>
    <linearGradient id="linear-gradient-3" x1="759.8" y1="516.5" x2="869.7" y2="372.2" gradientTransform="translate(0 768.1) scale(1 -1)" gradientUnits="userSpaceOnUse">
      <stop offset="0" stop-color="#2daf4a"/>
      <stop offset="1" stop-color="#205a2d"/>
    </linearGradient>
  </defs>
  <g>
    <g>
      <path class="cls-5" d="M196.7,509.8c0,9.2-2.8,16.3-8.4,21.2-5.6,4.9-13.5,7.4-23.9,7.4h-58.4v47.5h-6.8v-119.9h65.8c9.5,0,17.4,2.5,23.5,7.5,5.4,4.4,8.1,9.6,8.1,15.6v20.8h0ZM189.8,509.7v-19.1c0-5.4-2.3-9.8-6.8-13.3-4.6-3.5-10.5-5.3-17.9-5.3h-59.3v60.5h59.3c8.1,0,14.3-2,18.4-5.8,4.1-3.9,6.2-9.6,6.2-17Z"/>
      <path class="cls-5" d="M109,588.9h-13.1v-126.1h69.1c10.3,0,18.8,2.7,25.4,8.2,6.2,5,9.3,11.1,9.3,18.1v20.7c0,10.1-3.2,18-9.5,23.5-6.2,5.4-14.9,8.1-26,8.1h-55.2v47.4ZM102.3,582.6h.5v-113.5h-.5v113.5ZM109,529.2h56.1c7.3,0,12.8-1.7,16.3-5,3.4-3.2,5.2-8.1,5.2-14.6v-19.1c0-4.4-1.9-7.9-5.6-10.9-4-3.1-9.2-4.6-15.9-4.6h-56.1v54.3ZM185.8,475.2c4.8,4,7.3,9.1,7.3,15.2v19.1c0,7.8-2.2,14.1-6.5,18.5,4.7-4.3,7-10.4,7-18.4v-20.7c0-5.1-2.3-9.3-7-13.1-.3-.2-.6-.4-.8-.6Z"/>
    </g>
    <g>
      <path class="cls-5" d="M307.6,561.5c0,8-2.4,14-7.3,18.2-4.8,4-12.9,6.1-24.1,6.1h-22.1c-10.9,0-18.8-2.1-23.9-6.2-5.1-4.1-7.7-10.1-7.7-18.1v-66.1h6v66.1c0,12.7,8.5,18.9,25.6,18.9h22.1c16.8,0,25.2-6.2,25.2-18.4v-66.6h6.2v66.1Z"/>
      <path class="cls-5" d="M276.2,588.9h-22.1c-11.6,0-20.2-2.4-25.9-6.9-5.9-4.7-8.8-11.7-8.8-20.5v-69.3h12.4v69.3c0,6.8,2.4,15.8,22.4,15.8h22.1c19.8,0,22.1-8.7,22.1-15.3v-69.8h12.5v69.3c0,8.9-2.8,15.9-8.3,20.5-5.5,4.7-14.1,6.9-26.2,6.9Z"/>
    </g>
    <g>
      <path class="cls-5" d="M378,500.8h-7.9c-5.8,0-10.6,1.6-14.3,4.7-4.4,3.7-6.6,8.8-6.6,15.4v64.8h-6v-64.8c0-8.3,2.6-14.7,7.8-19,5.2-4.3,11.9-6.5,20-6.5h7s0,5.4,0,5.4Z"/>
      <path class="cls-5" d="M352.3,588.9h-12.3v-67.9c0-9.3,3-16.5,8.9-21.5,5.8-4.8,13.2-7.3,22.1-7.3h10.1v11.8h-11.1c-5,0-9.1,1.4-12.4,4-3.6,3.1-5.4,7.4-5.4,13.1,0,0,0,67.8,0,67.8Z"/>
    </g>
    <g>
      <path class="cls-5" d="M482.4,585.7h-52.5c-11.1,0-19.1-2.1-24.1-6.2-5-4.1-7.5-10.6-7.5-19.5v-38.4c0-9.5,2.4-16.2,7.1-20.2s12.8-6,24.1-6h24.8c10.4,0,17.7,2.1,21.8,6.2,4.2,4.1,6.3,11.2,6.3,21.1v2.4l-78.1,30.3v3.9c0,8,1.8,13.5,5.3,16.6,3.5,3,9.7,4.6,18.5,4.6h54.3v5.2ZM476,521.6c.3-1.8.4-3.1.4-3.9,0-5.3-2.1-9.4-6.3-12.5-4.2-2.9-10.4-4.5-18.5-4.5h-20.5c-9.5,0-16.4,1.5-20.5,4.4-4.1,2.9-6.2,7.8-6.2,14.7v29.3l71.6-27.6Z"/>
      <path class="cls-5" d="M485.6,588.9h-55.6c-12,0-20.5-2.3-26.1-6.9-5.7-4.7-8.6-12.2-8.6-22v-38.4c0-10.4,2.7-18,8.1-22.7,5.4-4.5,13.9-6.8,26.2-6.8h24.8c11.4,0,19.2,2.4,24,7.1,4.8,4.7,7.3,12.6,7.3,23.4v4.5l-78.1,30.3v1.8c0,7.1,1.4,11.8,4.2,14.2,2.9,2.6,8.4,3.8,16.4,3.8h57.5v11.6h0ZM431.1,504c-8.8,0-15.1,1.3-18.7,3.8-3.2,2.4-4.9,6.3-4.9,12.2v24.7l65.6-25.3c0-.7,0-1.3,0-1.7,0-4.3-1.6-7.5-5-9.9-3.6-2.6-9.2-3.9-16.7-3.9h-20.4ZM479.3,521.2c0,.3,0,.6,0,.9v.9c0,0,.2-.4.2-.4,0-.4,0-.9,0-1.4ZM466.7,500c2,.8,3.7,1.7,5.3,2.7,1.7,1.2,3,2.6,4.1,4-.7-1.1-1.4-2.1-2.2-2.8-1.8-1.8-4.2-3-7.3-3.9Z"/>
    </g>
    <g>
      <path class="cls-5" d="M595,471.9h-55.3c-17.4,0-26,7.1-26,21.2v9.2c0,13.1,9.2,19.7,27.7,19.7h20.9c10.5,0,18.5,2.4,24.2,7,5.7,4.6,8.5,11,8.5,19.1v11.9c0,8.2-2.4,14.4-7,18.5-5.4,4.8-14.1,7.3-26,7.3h-55.1v-5.9h55.1c9.4,0,16.2-1.7,20.2-5s6-8.1,6-14.4v-12c0-13.5-8.6-20.3-26-20.3h-20.7c-23.2,0-34.6-8.2-34.6-24.9v-10c0-9.1,3-15.9,9.1-20.5,6.1-4.6,14-6.9,23.9-6.9h55.1v6h0Z"/>
      <path class="cls-5" d="M562.1,588.9h-58.3v-12.3h58.3c8.5,0,14.8-1.5,18.2-4.2,3.2-2.7,4.9-6.7,4.9-12.1v-11.8c0-7.4-2.4-17.1-22.8-17.1h-20.7c-31.3,0-37.9-15.2-37.9-28.1v-10c0-10.1,3.4-17.9,10.3-23.1,6.6-5,15.3-7.6,25.8-7.6h58.3v12.3h-58.5c-20.5,0-22.9,10.3-22.9,18.1v9.2c0,7.1,2.6,16.6,24.5,16.6h20.9c11.2,0,20,2.6,26.2,7.7,6.5,5.2,9.7,12.5,9.7,21.6v11.9c0,9.1-2.6,16.1-8,20.9-6,5.3-15.4,7.9-28.1,7.9ZM579.3,528.2c9.6,4.4,12.1,12.9,12.1,20.3v11.9c0,7.3-2.5,13-7.2,16.9-.6.5-1.3,1-2,1.4,1.4-.8,2.6-1.6,3.7-2.6,3.9-3.5,5.9-9,5.9-16.2v-11.9c0-7.2-2.5-12.7-7.4-16.7-1.6-1.2-3.2-2.3-5.2-3.1ZM514.9,478.1c-3.2,3.8-4.9,8.8-4.9,15.3v10c0,12.9,7.9,19.9,24.3,21.4-19.5-2.1-23.9-13.1-23.9-22.5v-9.2c0-5,1.2-10.5,4.5-15Z"/>
    </g>
    <g>
      <path class="cls-5" d="M708,560.5c0,9.3-2.4,15.8-7.1,19.5-4.7,3.8-11.9,5.7-21.4,5.7h-24.6c-10.2,0-17.8-2.1-22.6-6.2-4.8-4.1-7.3-10.5-7.3-19v-38.5c0-9.8,2.6-16.8,7.9-21,4.7-3.7,12.1-5.6,21.9-5.6h24.6c18.9,0,28.5,8.9,28.5,26.6v38.5ZM701.8,562.6v-42.2c0-7.3-2-12.3-6-15.2-4-2.8-9.5-4.3-16.7-4.3h-24c-9.3,0-15.6,1.5-18.9,4.4s-5,7.9-5,15.1v41.7c0,6.2,2,10.8,5.9,13.9,3.9,3,10,4.6,18.2,4.6h24c8.2,0,14.1-1.5,17.6-4.3,3.3-3,5-7.6,5-13.7Z"/>
      <path class="cls-5" d="M679.5,588.9h-24.6c-11.1,0-19.1-2.3-24.6-6.9-5.6-4.7-8.3-12-8.3-21.5v-38.5c0-10.8,3-18.7,9.2-23.5,5.3-4.1,13.3-6.3,23.8-6.3h24.6c20.7,0,31.6,10.3,31.6,29.7v38.5c0,10.2-2.7,17.7-8.2,22-5.3,4.3-13.1,6.4-23.5,6.4ZM655.1,504c-10.5,0-15,2-16.9,3.6-2.6,2.3-3.9,6.6-3.9,12.8v41.7c0,5.2,1.6,8.9,4.7,11.4,3.3,2.6,8.8,3.9,16.2,3.9h24c7.4,0,12.8-1.3,15.5-3.6,2.7-2.3,4-6,4-11.3v-42.2c0-6.2-1.6-10.3-4.7-12.6-3.4-2.5-8.4-3.7-14.8-3.7h-24.1Z"/>
    </g>
    <g>
      <path class="cls-5" d="M777,500.8h-28v84.9h-6v-95.6c0-7.7,2.3-13.6,6.9-17.9,4.6-4.2,10.8-6.4,18.6-6.4h8.3v5.4h-7.8c-5.9,0-10.8,1.8-14.5,5.1-3.7,3.4-5.6,7.8-5.6,13.3v5.6h28s0,5.5,0,5.5Z"/>
      <path class="cls-5" d="M752.2,588.9h-12.3v-98.7c0-8.6,2.6-15.4,7.9-20.2,5.2-4.8,12.2-7.2,20.8-7.2h11.5v11.7h-10.9c-5.2,0-9.2,1.4-12.4,4.3-3,2.8-4.6,6.4-4.6,11v2.5h28v11.8h-28.1v84.9ZM751.3,475.3c-.5.6-1.1,1.2-1.5,1.8.5-.6,1-1.2,1.5-1.8Z"/>
    </g>
    <g>
      <path class="cls-5" d="M833.4,500.8h-28.8v84.9h-6v-119.8h6v29.4h28.8v5.5Z"/>
      <polygon class="cls-5" points="807.7 588.9 795.3 588.9 795.3 462.8 807.7 462.8 807.7 492.2 836.5 492.2 836.5 504 807.7 504 807.7 588.9"/>
    </g>
    <g>
      <path class="cls-5" d="M979.9,495.4l-28.3,84.8c-1.5,4.3-3.1,6.5-5.1,6.5s-3.4-2.1-5-6.1l-25.5-74.7-25.8,74.7c-1.5,4-3.2,6.1-5.3,6.1s-4-2.1-5.4-6.3l-27.7-85h6.4l27,80.8,26.1-75c1.4-3.8,2.9-5.8,4.6-5.8s3.4,2,4.6,5.8l25.9,75,27-80.8h6.5Z"/>
      <path class="cls-5" d="M946.5,589.7c-4.9,0-7.2-6.1-7.9-8.1l-22.6-66-22.8,65.9c-2,5.5-4.7,8.2-8.3,8.2s-6.6-2.8-8.3-8.4l-29-89h13.1l24.7,74.2,23.1-66.2c.7-2,2.8-7.8,7.7-7.8s6.1,2.6,7.7,7.9l22.9,66.1,24.7-74.1h13.1l-29.6,88.9c-.7,2-2.8,8.4-8.1,8.4ZM864.5,523.9l18.1,55.5c.6,1.9,1.2,2.8,1.6,3.4l-19.6-59Z"/>
    </g>
    <g>
      <path class="cls-5" d="M1089.7,561.4c0,8.6-2.4,14.9-7.2,19-4.2,3.6-10.4,5.4-18.6,5.4h-31c-8.2,0-14.8-2.1-19.7-6.3-4.9-4.2-7.4-9.8-7.4-16.8v-13.5c0-7.3,2.4-13,7.2-17.3,4.8-4.3,11.3-6.4,19.5-6.4h51.3v-5.8c0-6-2-10.6-5.8-13.9-3.9-3.2-9.2-4.9-16.2-4.9h-56.1v-5.4h53c20.6,0,30.9,8.4,30.9,25.2v40.6h0ZM1083.9,562.7v-31.8h-51.7c-6.2,0-11.2,1.6-14.8,4.8-3.7,3.2-5.6,7.7-5.6,13.3v13.3c0,5.3,2,9.7,5.9,13.1,3.9,3.4,8.9,5.1,15.1,5.1h31.5c6.4,0,11.2-1.6,14.5-4.6,3.3-3.1,5.1-7.6,5.1-13.2Z"/>
      <path class="cls-5" d="M1063.9,588.9h-31c-9,0-16.4-2.4-21.8-7.1-5.6-4.8-8.4-11.2-8.4-19.1v-13.5c0-8.1,2.7-14.7,8.2-19.6,5.3-4.8,12.7-7.3,21.7-7.3h48.2v-2.6c0-5-1.6-8.8-4.7-11.5-3.3-2.7-7.9-4.1-14.1-4.1h-59.3v-11.8h56.2c28.2,0,34,15.4,34,28.5v40.7c0,9.5-2.7,16.7-8.2,21.4-4.9,4-11.9,6.1-20.8,6.1ZM1032.2,534c-5.4,0-9.7,1.4-12.8,4-3,2.6-4.5,6.2-4.5,10.9v13.3c0,4.4,1.6,7.8,4.7,10.7,3.3,2.9,7.6,4.3,13.1,4.3h31.5c5.5,0,9.7-1.3,12.5-3.8,2.7-2.6,4-6.1,4-10.9v-28.7h-48.5v.2Z"/>
    </g>
    <g>
      <path class="cls-5" d="M1160,500.8h-7.9c-5.8,0-10.6,1.6-14.3,4.7-4.4,3.7-6.6,8.8-6.6,15.4v64.8h-6v-64.8c0-8.3,2.6-14.7,7.8-19,5.2-4.3,12-6.5,20.1-6.5h7v5.4h0Z"/>
      <path class="cls-5" d="M1134.2,588.9h-12.4v-67.9c0-9.2,3-16.5,8.9-21.5,5.8-4.8,13.2-7.3,22.1-7.3h10.1v11.8h-11.1c-5.1,0-9.1,1.3-12.3,4-3.7,3.1-5.5,7.4-5.5,13.1v67.8h0Z"/>
    </g>
    <g>
      <path class="cls-5" d="M1264.4,585.7h-52.5c-11.1,0-19.1-2.1-24.1-6.2-5-4.1-7.5-10.6-7.5-19.5v-38.4c0-9.5,2.4-16.2,7.1-20.2s12.8-6,24.1-6h24.8c10.3,0,17.6,2.1,21.8,6.2,4.2,4.1,6.3,11.2,6.3,21.1v2.4l-78.1,30.3v3.9c0,8,1.8,13.5,5.3,16.6,3.5,3,9.7,4.6,18.5,4.6h54.4v5.2h0ZM1257.9,521.6c.3-1.8.4-3.1.4-3.9,0-5.3-2.1-9.4-6.3-12.5-4.2-2.9-10.3-4.5-18.4-4.5h-20.5c-9.6,0-16.5,1.5-20.5,4.4-4.1,2.9-6.2,7.8-6.2,14.7v29.3l71.5-27.6Z"/>
      <path class="cls-5" d="M1267.6,588.9h-55.6c-12,0-20.5-2.3-26.1-6.9-5.7-4.7-8.6-12.2-8.6-22v-38.4c0-10.4,2.7-18,8.2-22.7,5.4-4.5,13.9-6.8,26.2-6.8h24.8c11.3,0,19.1,2.4,23.9,7.1,4.9,4.8,7.3,12.4,7.3,23.4v4.5l-78.1,30.3v1.8c0,7.1,1.4,11.8,4.2,14.2,2.8,2.5,8.5,3.8,16.5,3.8h57.5v11.6h-.2ZM1213.1,504c-8.8,0-15.2,1.3-18.7,3.8-3.3,2.4-4.9,6.3-4.9,12.2v24.7l65.6-25.3c0-.7,0-1.2,0-1.6,0-4.3-1.6-7.5-5-9.8-3.6-2.6-9.2-3.9-16.7-3.9h-20.4ZM1261.3,521.2c0,.3,0,.6-.2,1l-.2.9.3-.4c0-.5,0-1.1,0-1.5ZM1248.6,500c2,.8,3.7,1.7,5.3,2.7,1.7,1.2,3,2.5,4.1,3.9-.6-1.1-1.4-2.1-2.2-2.8-1.7-1.7-4.1-2.9-7.3-3.8Z"/>
    </g>
    <path class="cls-4" d="M660.3,355.8c-58.5,3.1-113.5,19.2-162.2,45.3,1.9,3.2-8.2-14.2-8.2-14.2l-2.3-3.9c-5.4-9.2-1.7-2.9-7.4-12.7,8.9-6.4,63.3-49.8,180.2-52.2"/>
    <g>
      <path class="cls-7" d="M619.5,211.7c26.5-51.9,40-107.3,41.6-162.4-3.7,0,16.6,0,16.6,0h19.1c1.1,10.9,11.8,79.4-44.5,181.1"/>
      <line class="cls-2" x1="686.7" y1="49.4" x2="725.4" y2="222.9"/>
      <path class="cls-6" d="M744.9,211.7c-26.5-51.9-40-107.3-41.7-162.4,3.8,0-16.5,0-16.5,0h-19.1c-1.1,10.9-11.8,79.4,44.6,181.1"/>
    </g>
    <path class="cls-9" d="M597.6,247.8c-32,48.8-73.5,88.1-120.6,117.1-1.9-3.2,8.2,14.2,8.2,14.2l2.3,3.9c5.4,9.2,1.7,2.9,7.4,12.7,10-4.5,75.1-29.5,135.5-128.9"/>
    <path class="cls-8" d="M766,247.8c32,48.8,73.5,88.1,120.6,117.1,1.9-3.2-8.2,14.2-8.2,14.2l-2.3,3.9c-5.4,9.2-1.7,2.9-7.3,12.7-10-4.5-75.1-29.5-135.5-128.9"/>
    <path class="cls-1" d="M703.3,355.8c58.5,3.1,113.5,19.2,162.3,45.3-1.9,3.2,8.2-14.2,8.2-14.2l2.3-3.9c5.4-9.2,1.7-2.9,7.4-12.7-8.9-6.4-63.3-49.8-180.2-52.2"/>
  </g>
  <g>
    <path class="cls-5" d="M144.2,706.1c-5.8,0-8.8-1.7-9.8-6.9-.4-2.1-.9-4.4-1.6-6.8h-20c-1.3,4.2-2.3,10.1-2.9,13.7h-6.5c-5.1,0-7.4-2.9-7.4-7.1,0-8.4,11-40.3,21.1-50.8h6.2c5.6,0,9.3,2.9,11.3,6.1,5.5,9.2,14.3,32.2,16.9,51.9h-7.2ZM123,662.6c-2.5,4.8-5,11.6-6.7,17.3h13.3c-1.7-5.7-4.2-12.7-6.6-17.3Z"/>
    <path class="cls-3" d="M220.1,706.1c-4.4,0-9.1-3.1-9.1-9v-14.7h-18.8v23.7h-7.1c-4.4,0-9-3.1-9-9v-49h8.2c4.2,0,7.7,3.1,7.7,7.5v14h18.9v-21.5h7.8c3.8,0,8.1,2.8,8.1,7.5v50.5h-6.9Z"/>
    <path class="cls-3" d="M255.1,707.4c-8.9,0-19.7-4.2-19.7-14.7s7.4-15.5,24.2-15.5h2.3v-1.9c0-3.8-2.9-4.7-9.2-4.7s-11.8,2-15.1,5h-.4v-5.6c0-5.7,6-11.4,19.2-11.4s21.1,6.5,21.1,20.1v7.1c0,16.8-5.4,21.6-22.2,21.6ZM262.2,687.1h-3.2c-6.1,0-8.5,1.5-8.5,4.6s1.8,4.5,6.3,4.5,5.4-1.4,5.4-5.6v-3.4Z"/>
    <path class="cls-3" d="M312.8,707.5c-6.2,0-9.8-2.9-11.8-6.3v19.2h-5.8c-6.4,0-9.7-3.4-9.7-11.2v-24.4c0-16.6,9.2-26.2,25.5-26.2s23.7,9.2,23.7,23.4-9.2,25.5-21.8,25.5ZM309.1,670.8c-4.4,0-7.9,4.2-7.9,11,0,9.8,4.2,13.3,9.7,13.3s7.8-4.5,7.8-11.3c0-9.9-3-12.9-9.6-12.9Z"/>
    <path class="cls-3" d="M369.8,707.5c-6.2,0-9.8-2.9-11.8-6.3v19.2h-5.8c-6.4,0-9.7-3.4-9.7-11.2v-24.4c0-16.6,9.2-26.2,25.5-26.2s23.7,9.2,23.7,23.4-9.2,25.5-21.8,25.5ZM366.1,670.8c-4.4,0-7.9,4.2-7.9,11,0,9.8,4.2,13.3,9.7,13.3s7.8-4.5,7.8-11.3c0-9.9-3-12.9-9.6-12.9Z"/>
    <path class="cls-3" d="M408.1,657.3c-4.6,0-8.4-3.5-8.4-7.9s3.8-7.9,8.4-7.9,8.3,3.5,8.3,7.9-3.7,7.9-8.3,7.9ZM415.7,706.8c-8.5,0-15.1-4.2-15.1-15.1v-30.3h3.9c9.1,0,12,2.6,12,11v17c0,4.1,1.9,5.4,6.4,5.4h1.9v4.7c0,5.5-4.2,7.4-9.2,7.4Z"/>
    <path class="cls-3" d="M451.7,688.7h-6.9c.9,4.6,4.7,6.8,11.3,6.8s12-1.2,14.6-2.9h.6v3.7c0,5.9-4.8,11.2-18,11.2s-24.4-10.8-24.4-23.5,9.5-25.5,23.8-25.5,21.5,6.8,21.5,18.6-7,11.7-22.6,11.7ZM452.8,670.4c-5.6,0-8,3.6-8.4,8.1h6.2c7.6,0,8.9-1.2,8.9-3.2s-2.1-4.9-6.7-4.9Z"/>
    <path class="cls-3" d="M498.9,707.5c-12.6,0-17.1-4.6-17.1-11.3v-4.6h.4c3,2.3,7.6,4,14.2,4s7.6-1.3,7.6-3.6-1.1-2.9-10.7-4.3c-8.3-1.2-12.7-5-12.7-12.3,0-11.1,10.5-16.7,21.1-16.7s16.5,4.1,16.5,11v4.8h-.4c-3.1-2.3-8-3.9-14.2-3.9s-7.9,1.6-7.9,3.5,1,2.3,10.7,3.9c7.7,1.3,12.9,5.5,12.9,13.3s-7.7,16.2-20.4,16.2Z"/>
    <path class="cls-3" d="M533,651.8c2.1-1.6,5-3.1,8.3-3.1h1.7v11.3h13.5v5.6c0,3.9-4.2,7-7.8,7h-5.7v16.7c0,3.1,1.9,5,5,5s5.5-.3,7.2-1h.4v6.2c0,3.9-3.5,7.4-11.8,7.4s-16.4-3.8-16.4-16.5v-28.6c0-4.2,2.4-7.6,5.5-9.9Z"/>
    <path class="cls-3" d="M648.1,706.1c-5.5,0-9.6-3-9.6-9.1s-.5-20.1-1.4-28.6l-8,24.4c-1.2,3.5-3.6,9.7-5.8,13.4h-4.5c-5.5,0-9.7-4.1-13.4-15.9l-2.9-9.7c-1.4-4.8-3.2-9.9-4.1-12.3-1,9.9-1.8,28.3-1.8,37.9h-6c-4.9,0-9.3-3.4-9.3-9.1,0-16.6,2.3-36.7,5-48.9h5.5c9.2,0,13.9,4.4,16,9.5l4.5,11.3c1.9,4.9,4.4,11.5,5.6,16.4,1.3-4.3,3-9.4,4.8-13.6l5.5-13.3c2.1-5,4.9-8.5,7-10.2h2.9c8.4,0,12.4,4.6,13.5,12.9,1.5,11.3,2.9,29.1,2.9,45h-6.8Z"/>
    <path class="cls-3" d="M672.7,657.3c-4.6,0-8.4-3.5-8.4-7.9s3.8-7.9,8.4-7.9,8.3,3.5,8.3,7.9-3.7,7.9-8.3,7.9ZM680.3,706.8c-8.5,0-15.1-4.2-15.1-15.1v-30.3h3.9c9.1,0,12,2.6,12,11v17c0,4.1,1.9,5.4,6.4,5.4h1.9v4.7c0,5.5-4.2,7.4-9.2,7.4Z"/>
    <path class="cls-3" d="M734.4,706.1c-7.1,0-9.2-2.4-9.2-9.4v-16.2c0-6.2-2.1-9-7.5-9s-7.1,3.1-7.1,8.7v25.9h-5.4c-6.8,0-10.6-2.7-10.6-9.4v-16.2c0-13.3,8.8-21.9,23.5-21.9s23,8.7,23,22.4v25.2h-6.7Z"/>
    <path class="cls-3" d="M773,707.5c-13.6,0-24.1-11.2-24.1-23.7s9.6-25.2,21.8-25.2,10.2,2.6,11.9,6.2v-20.8h5.7c6.4,0,9.8,3.4,9.8,11.2v26.8c0,16.7-6.8,25.5-25.2,25.5ZM772.6,670.9c-4.3,0-7.9,4.5-7.9,11.5s4.2,12.8,10,12.8,7.6-3.9,7.6-11.1c0-10.3-4-13.2-9.7-13.2Z"/>
    <path class="cls-3" d="M824.1,707.5c-12.6,0-17.1-4.6-17.1-11.3v-4.6h.4c3,2.3,7.6,4,14.2,4s7.6-1.3,7.6-3.6-1.1-2.9-10.7-4.3c-8.3-1.2-12.7-5-12.7-12.3,0-11.1,10.5-16.7,21.1-16.7s16.5,4.1,16.5,11v4.8h-.4c-3.1-2.3-8-3.9-14.2-3.9s-7.9,1.6-7.9,3.5,1,2.3,10.7,3.9c7.7,1.3,12.9,5.5,12.9,13.3s-7.7,16.2-20.4,16.2Z"/>
    <path class="cls-5" d="M919.4,666.6c-2.9-3.8-10.2-6-16.5-6-9.4,0-16.3,6.2-16.3,15.6s7.2,17.5,16.6,17.5,13.1-2.4,16-5.4h.4v6c0,7.5-7.5,13.2-18.8,13.2s-30.2-11.4-30.2-29.7,11.8-30.9,31.2-30.9,18.1,5.6,18.1,13.8v6h-.4Z"/>
    <path class="cls-5" d="M950.3,658.7c12.6,0,23.9,9.6,23.9,23.9s-9.2,24.9-25.1,24.9-23.9-9.7-23.9-23.4,10.6-25.4,25.1-25.4ZM949.3,671.3c-4.4,0-8.3,4.6-8.3,10.9s3.5,12.8,9.2,12.8,8.3-4.6,8.3-11-3.6-12.7-9.2-12.7Z"/>
    <path class="cls-5" d="M1048.9,706.1c-8.5,0-10.4-3.6-10.4-9.3v-17.1c0-6-2-8.1-6.6-8.1s-6,3.3-6,7.9v26.6h-5.5c-6.5,0-9.9-2.1-9.9-9.3v-17.5c0-5.5-2.1-7.7-6.3-7.7s-6.2,2.3-6.2,8v26.5h-5.5c-7.1,0-10.4-3.4-10.4-9.3v-16.2c0-13.4,7.7-22,22.4-22s12.7,4.5,14.2,8.2c2.2-3.5,7.8-8.2,14.4-8.2,13.4,0,21.4,8,21.4,22.4v25.1h-5.5Z"/>
    <path class="cls-5" d="M1090.6,707.5c-6.2,0-9.8-2.9-11.8-6.3v19.2h-5.8c-6.4,0-9.7-3.4-9.7-11.2v-24.4c0-16.6,9.2-26.2,25.5-26.2s23.7,9.2,23.7,23.4-9.2,25.5-21.8,25.5ZM1086.9,670.8c-4.4,0-7.9,4.2-7.9,11,0,9.8,4.2,13.3,9.7,13.3s7.8-4.5,7.8-11.3c0-9.9-3-12.9-9.6-12.9Z"/>
    <path class="cls-5" d="M1138.9,707.4c-8.9,0-19.7-4.2-19.7-14.7s7.4-15.5,24.2-15.5h2.3v-1.9c0-3.8-2.9-4.7-9.2-4.7s-11.8,2-15.1,5h-.4v-5.6c0-5.7,6-11.4,19.2-11.4s21.1,6.5,21.1,20.1v7.1c0,16.8-5.4,21.6-22.2,21.6ZM1145.9,687.1h-3.2c-6,0-8.5,1.5-8.5,4.6s1.8,4.5,6.3,4.5,5.4-1.4,5.4-5.6v-3.4Z"/>
    <path class="cls-5" d="M1209,706.1c-7.1,0-9.2-2.4-9.2-9.4v-16.2c0-6.2-2.1-9-7.5-9s-7.1,3.1-7.1,8.7v25.9h-5.4c-6.8,0-10.6-2.7-10.6-9.4v-16.2c0-13.3,8.8-21.9,23.5-21.9s23,8.7,23,22.4v25.2h-6.7Z"/>
    <path class="cls-5" d="M1258.3,693.9c-12.9,24.9-16.2,27.4-25.9,27.4s-9.4-2.8-9.4-8v-3.9l6.9-.5c4.2-.3,6.1-2,7.8-5.8-6.6-9.9-15.1-30.9-17-43.3h8.3c3.9,0,8.1,2.4,9,6.6,1.6,7.3,4.8,16.2,7.2,21.8,3.4-7,7.1-19.4,8.1-28.4h7.6c4.6,0,6.8,2.2,6.8,5.9s-4.4,18.3-9.5,28.1Z"/>
  </g>
</svg>