<svg xmlns="http://www.w3.org/2000/svg" width="94" height="41" viewBox="0 0 94 41" fill="none"><path d="M33.8511 19.728L25.5445 29.9013H33.8511V33.677H20.2871V30.2159L28.5937 20.0426H20.6026V16.267H33.8511V19.728Z" fill="white"></path><path d="M54.1439 16.267V33.5721H50.2534V31.7891C48.6762 33.2575 46.6784 34.0965 44.5755 34.0965C39.6336 34.2014 35.3225 29.9013 35.4277 24.8671C35.3225 19.9378 39.6336 15.5328 44.5755 15.6377C46.6784 15.6377 48.6762 16.4767 50.2534 17.945V16.1621H54.1439V16.267ZM44.8909 19.6231C41.9468 19.6231 39.5284 22.0353 39.5284 24.972C39.5284 27.9086 41.9468 30.3208 44.8909 30.3208C47.835 30.3208 50.2534 27.9086 50.2534 24.972C50.2534 22.0353 47.835 19.6231 44.8909 19.6231Z" fill="white"></path><path d="M63.8173 16.267H67.3923V20.0426H63.8173V33.677H59.7166V20.0426H56.7725V16.267H59.7166V14.3791C59.7166 10.1839 62.6607 6.93268 67.3923 6.93268V10.8132C65.2894 10.8132 63.8173 12.2815 63.8173 14.3791V16.267Z" fill="white"></path><path d="M71.809 6.61804C73.1759 6.61804 74.2274 7.66684 74.2274 8.92539C74.2274 10.1839 73.1759 11.2327 71.809 11.2327C70.4421 11.2327 69.3906 10.1839 69.3906 8.92539C69.3906 7.66684 70.4421 6.61804 71.809 6.61804Z" fill="white"></path><path d="M73.9119 16.267H69.7061V33.5721H73.9119V16.267Z" fill="white"></path><path d="M93.7845 33.6769H89.5786V23.7134C89.5786 21.3012 88.0014 19.728 85.6881 19.728C83.3749 19.728 81.7977 21.3012 81.7977 23.7134V33.6769H77.5918V16.267H81.4822V17.945C82.744 16.4767 84.5315 15.7426 86.7396 15.7426C90.7352 15.7426 93.6793 18.6792 93.6793 22.6646V33.5721L93.7845 33.6769Z" fill="white"></path><path d="M7.53711 27.0357L0.834961 33.6769L7.56439 40.2843L14.2938 33.6769L7.56439 27.0695L7.53711 27.0357Z" fill="url(#paint0_linear_389_323)"></path><path d="M0.834961 33.6769V20.3572L7.56439 13.7498L14.2938 20.3572L0.834961 33.6769Z" fill="url(#paint1_linear_389_323)"></path><path d="M14.2934 20.3573V7.03758L7.66915 0.430176L0.798828 7.11566L14.2934 20.3573Z" fill="url(#paint2_linear_389_323)"></path><defs><linearGradient id="paint0_linear_389_323" x1="10.824" y1="37.0331" x2="4.21683" y2="30.304" gradientUnits="userSpaceOnUse"><stop stop-color="#35B0FF"></stop><stop offset="0.216346" stop-color="#009CFF"></stop><stop offset="1" stop-color="#003896"></stop></linearGradient><linearGradient id="paint1_linear_389_323" x1="7.56439" y1="33.6769" x2="7.56439" y2="13.7498" gradientUnits="userSpaceOnUse"><stop stop-color="#68C4FF"></stop><stop offset="0.216346" stop-color="#009CFF"></stop><stop offset="1" stop-color="#003896"></stop></linearGradient><linearGradient id="paint2_linear_389_323" x1="7.67278" y1="20.3573" x2="7.67278" y2="0.430176" gradientUnits="userSpaceOnUse"><stop stop-color="#4BB9FF"></stop><stop offset="0.168269" stop-color="#009CFF"></stop><stop offset="1" stop-color="#003896"></stop></linearGradient></defs></svg>